<?xml version="1.0" encoding="UTF-8"?>
<svg xmlns="http://www.w3.org/2000/svg" viewBox="0 0 64 64">
  <defs>
    <style>
      .cls-1 {
        fill: #4a79bc;
      }

      .cls-2 {
        isolation: isolate;
      }

      .cls-3 {
        opacity: .26;
      }

      .cls-3, .cls-4, .cls-5 {
        fill: #fff;
      }

      .cls-6 {
        fill: #6096d0;
      }

      .cls-4 {
        opacity: .2;
      }

      .cls-5 {
        opacity: .15;
      }

      .cls-7 {
        fill: #77aedf;
      }

      .cls-8 {
        fill: #66b65e;
      }

      .cls-9 {
        fill: #4dae46;
      }

      .cls-10 {
        mix-blend-mode: multiply;
        opacity: .18;
      }

      .cls-10, .cls-11 {
        fill: #010101;
      }

      .cls-11 {
        opacity: 0;
      }

      .cls-12 {
        fill: #2e9f37;
      }

      .cls-13 {
        fill: #8bc3eb;
      }
    </style>
  </defs>
  <g class="cls-2">
    <g id="Ebene_1" data-name="Ebene 1">
      <g>
        <g>
          <path class="cls-1" d="m64,32c0,.11,0,.21,0,.32h0c-.03,2.85-.43,5.6-1.15,8.22-.73,2.62-1.78,5.11-3.1,7.41-.59,1.02-1.22,1.99-1.91,2.93,0,0,0,0,0,.01-.69.94-1.43,1.84-2.22,2.7-2.47,2.7-5.4,4.97-8.66,6.7h0c-.18.09-.36.19-.54.28l-.06.03c-.17.09-.34.17-.52.25-.03.01-.05.03-.08.04-.17.08-.34.16-.51.24-.03.01-.05.02-.08.04-.17.08-.35.16-.53.23-.02,0-.04.02-.06.03-.75.32-1.52.62-2.3.88-.03,0-.06.02-.09.03-.15.05-.29.09-.44.14-.08.02-.15.05-.23.07-.13.04-.26.08-.39.12-.09.03-.19.05-.28.08-.12.03-.25.07-.37.1-.1.03-.21.06-.31.08-.12.03-.23.06-.35.09-.11.03-.23.06-.34.08-.11.03-.22.05-.33.08-.12.03-.25.05-.37.08-.1.02-.21.05-.31.07-.14.03-.28.06-.43.08-.09.02-.18.03-.26.05-.23.04-.46.08-.69.12-.24.04-.48.07-.73.11,0,0-.01,0-.02,0-.25.03-.5.06-.75.09-1.17.13-2.36.2-3.57.2-.25,0-.5,0-.74,0-.08,0-.15,0-.23,0-.18,0-.35-.01-.53-.02-.08,0-.16,0-.24-.01-.2-.01-.4-.02-.6-.04-.05,0-.09,0-.14,0-.23-.02-.47-.04-.7-.06-.09,0-.18-.02-.27-.03-.15-.02-.3-.03-.45-.05-.1-.01-.2-.02-.3-.04-.15-.02-.29-.04-.44-.06-.09-.01-.19-.03-.28-.04-.21-.03-.43-.07-.64-.11-.12-.02-.23-.04-.35-.06-.11-.02-.23-.04-.34-.07-.13-.02-.25-.05-.38-.08-.1-.02-.2-.04-.3-.07-.47-.1-.93-.22-1.39-.34-.08-.02-.16-.04-.23-.06-.14-.04-.28-.08-.42-.12-.07-.02-.15-.04-.22-.07-.14-.04-.29-.09-.43-.13t0,0c-.25-.08-.51-.16-.76-.25-.02,0-.03-.01-.05-.02-.24-.08-.47-.17-.7-.25-.03,0-.06-.02-.08-.03-.22-.08-.44-.17-.66-.26-.03-.01-.07-.03-.1-.04-.21-.09-.42-.18-.64-.27-.04-.02-.08-.03-.12-.05-.21-.09-.41-.18-.61-.27-.04-.02-.09-.04-.13-.06-.2-.09-.4-.19-.59-.28-.04-.02-.09-.04-.13-.07-.19-.1-.39-.2-.58-.3-.05-.02-.09-.05-.13-.07-.19-.1-.38-.2-.57-.31-.04-.02-.09-.05-.13-.07-.19-.11-.38-.21-.56-.32-.04-.02-.09-.05-.13-.07-.19-.11-.37-.23-.56-.34-.04-.02-.08-.05-.12-.07-.19-.12-.37-.24-.56-.36-.04-.02-.07-.05-.11-.07-.19-.12-.37-.25-.56-.38-.03-.02-.06-.04-.1-.07-.19-.13-.37-.27-.56-.4-.03-.02-.05-.04-.08-.06-.19-.14-.38-.28-.57-.43-.02-.02-.04-.03-.06-.05-.2-.15-.39-.31-.58-.46-.01,0-.02-.02-.03-.03-.72-.59-1.41-1.21-2.08-1.85-.02-.02-.04-.04-.06-.06-.72-.7-1.4-1.43-2.05-2.19,0,0-.01-.02-.02-.02-.66-.78-1.28-1.58-1.86-2.42h0s0,0,0,0c-.17-.24-.33-.49-.5-.74h0c-.97-1.48-1.82-3.05-2.54-4.69,0,0,0-.02-.01-.03-1.34-3.08-2.22-6.41-2.53-9.9,0-.07-.01-.14-.02-.21-.01-.13-.02-.26-.03-.4,0-.14-.02-.29-.03-.43,0-.12-.01-.24-.02-.36,0-.18-.02-.37-.02-.55,0-.07,0-.15,0-.22,0-.24,0-.48,0-.72,0-.2,0-.41,0-.61,0-.19.01-.39.02-.58,0-.04,0-.08,0-.13,0-.19.02-.37.03-.56,0-.04,0-.08,0-.12.03-.54.08-1.08.14-1.61.01-.1.02-.2.04-.3.02-.13.03-.25.05-.38.02-.12.03-.24.05-.37.02-.11.03-.23.05-.34.02-.16.05-.31.08-.46.09-.54.2-1.08.32-1.62,0-.03.01-.06.02-.08.05-.21.1-.41.15-.62,0-.04.02-.07.03-.11.05-.21.11-.42.17-.63l.02-.09c.06-.22.12-.43.19-.64,0-.02.01-.04.02-.06.07-.22.14-.44.21-.66,0-.01,0-.02.01-.03.07-.23.15-.45.23-.67,0,0,0,0,0-.01.08-.23.16-.45.25-.68.47-1.25,1.02-2.46,1.64-3.62,0,0,0-.01.01-.02.46-.86.96-1.7,1.49-2.52.01-.02.03-.05.04-.07.39-.59.8-1.17,1.22-1.73,0,0,.01-.02.02-.03.46-.61.95-1.2,1.45-1.77.02-.03.05-.05.07-.08.43-.49.89-.97,1.35-1.43.05-.06.11-.11.17-.17.04-.04.08-.08.13-.12.51-.5,1.04-.98,1.59-1.44.06-.05.11-.1.17-.14.27-.23.55-.45.82-.67.18-.14.37-.28.55-.42.07-.05.14-.1.21-.16.12-.09.24-.18.37-.27.08-.06.16-.11.24-.17.11-.08.23-.16.35-.24.08-.06.17-.11.25-.17.12-.08.24-.16.36-.24.08-.05.16-.1.24-.16.14-.09.28-.17.41-.26.07-.04.13-.08.19-.12.2-.12.4-.24.6-.36.07-.04.13-.07.2-.11.14-.08.29-.16.43-.24.08-.05.17-.09.25-.13.13-.07.26-.14.39-.21.09-.05.18-.09.27-.14.13-.07.26-.13.39-.19.09-.04.17-.09.26-.13.14-.07.28-.13.43-.2.08-.04.15-.07.23-.11.22-.1.43-.19.65-.29.04-.02.07-.03.11-.05.19-.08.37-.15.56-.23.08-.03.16-.06.25-.09.14-.06.29-.11.44-.17.09-.03.18-.07.27-.1.14-.05.28-.1.42-.15.09-.03.18-.06.27-.09.15-.05.3-.1.45-.15.08-.03.17-.05.25-.08.19-.06.37-.11.56-.17.05-.01.09-.03.14-.04.23-.07.47-.13.7-.19.07-.02.15-.04.22-.05.16-.04.33-.08.5-.12.09-.02.18-.04.27-.06.15-.03.3-.07.46-.1.09-.02.19-.04.28-.06.16-.03.31-.06.47-.09.09-.02.18-.03.27-.05.18-.03.35-.06.53-.09.07-.01.14-.02.21-.03.25-.04.49-.07.74-.1.05,0,.11-.01.16-.02.2-.02.39-.05.59-.07.09,0,.18-.02.27-.02.16-.02.33-.03.49-.05.1,0,.19-.01.29-.02.16-.01.32-.02.48-.03.09,0,.19-.01.28-.02.17,0,.35-.01.52-.02.08,0,.16,0,.25,0,.25,0,.51,0,.77,0,1.21,0,2.4.07,3.57.2.23.02.45.05.68.08.07,0,.13.02.2.03.16.02.32.05.48.07.07.01.14.02.21.03.19.03.38.06.57.1.03,0,.06.01.09.02.22.04.43.08.65.13.07.01.14.03.21.05.15.03.3.06.45.1.08.02.16.04.23.05.16.04.32.08.47.11.06.02.12.03.18.05.2.05.41.11.61.16.08.02.16.05.24.07.13.04.27.08.4.11.09.03.18.05.27.08.13.04.25.08.38.12.08.03.17.05.25.08.19.06.38.13.56.19.09.03.19.07.28.1.11.04.21.08.32.12.1.04.21.08.31.12.1.04.19.08.29.11.1.04.21.08.31.13.1.04.2.08.3.12.19.08.37.16.56.24.08.04.16.07.23.11.12.05.23.11.35.16.07.03.14.07.21.1.12.06.24.12.36.18.03.01.05.03.08.04.27.14.54.27.81.42.04.02.08.05.13.07.13.07.26.14.39.21.05.03.09.05.14.08.13.07.27.15.4.23,0,0,0,0,0,0,.31.18.62.37.92.56,0,0,0,0,0,0,.14.09.27.18.41.27.03.02.06.04.09.06.19.13.39.26.58.39.38.26.75.53,1.12.81.02.02.04.03.06.04,2.1,1.6,4,3.45,5.65,5.51,0,0,0,0,0,0,.14.17.27.34.4.51,0,0,.01.02.02.02.13.17.26.34.38.51,0,0,.02.02.02.03.13.17.25.35.37.52,0,0,.01.02.02.03.12.18.25.35.37.53,0,0,0,.01.01.02.12.18.24.37.36.55h0c.17.27.34.55.51.82,0,.01.01.02.02.03.38.63.73,1.28,1.07,1.93,0,.01.01.03.02.04.07.14.14.28.21.43.03.06.06.12.09.18.07.14.13.27.19.41.03.07.06.14.09.2.06.14.12.27.18.41.03.07.06.14.09.21.06.14.12.28.17.42.03.06.05.13.08.19.06.14.12.29.17.44.02.05.04.1.06.16.06.16.12.32.18.48,0,0,0,0,0,0,.21.59.41,1.19.59,1.79,0,.02.01.03.02.05.05.17.1.35.15.52.01.04.02.09.04.13.05.17.09.33.13.5.01.05.03.1.04.15.04.17.08.34.12.5.01.05.02.1.03.15.04.17.08.35.11.52,0,.04.02.07.02.11.18.9.33,1.81.44,2.73,0,0,0,0,0,.01.03.24.05.48.07.72,0,.02,0,.05,0,.08.02.22.04.44.05.66,0,.06,0,.11.01.17.01.19.02.38.03.57,0,.11,0,.22.01.33,0,.14.01.28.02.42,0,.25,0,.5,0,.76Z"/>
          <path class="cls-12" d="m52.07,46.76c-.74,3.82-3.21,7.16-6.31,9.5-5.61,4.24-12.92,5.37-19.93,6.06,2.59-2.78,5.18-5.55,7.77-8.33.88-.95,1.78-1.92,2.25-3.12.73-1.85.33-3.94-.15-5.87-1.63-6.6-4.43-13.5-10.27-16.99-3.99-2.38-9.07-2.94-12.4-6.19-2.4-2.33-3.49-5.76-3.63-9.1-.05-1.12-.07-2.25-.02-3.36.05-.06.11-.11.17-.17.04-.04.08-.08.13-.12.51-.5,1.04-.98,1.59-1.44.06-.05.11-.1.17-.14.27-.23.55-.45.82-.67.18-.14.37-.28.55-.42.07-.05.14-.1.21-.16.12-.09.24-.18.37-.27.08-.06.16-.11.24-.17.11-.08.23-.16.35-.24.08-.06.17-.11.25-.17.12-.08.24-.16.36-.24.08-.05.16-.1.24-.16.14-.09.28-.17.41-.26.07-.04.13-.08.19-.12.2-.12.4-.24.6-.36.07-.04.13-.07.2-.11.14-.08.29-.16.43-.24.08-.05.17-.09.25-.13.13-.07.26-.14.39-.21.09-.05.18-.09.27-.14.13-.07.26-.13.39-.19.09-.04.17-.09.26-.13.14-.07.28-.13.43-.2.08-.04.15-.07.23-.11.22-.1.43-.19.65-.29.04-.02.07-.03.11-.05.19-.08.37-.15.56-.23.08-.03.16-.06.25-.09.14-.06.29-.11.44-.17.09-.03.18-.07.27-.1.14-.05.28-.1.42-.15.09-.03.18-.06.27-.09.15-.05.3-.1.45-.15.08-.03.17-.05.25-.08.19-.06.37-.11.56-.17.05-.01.09-.03.14-.04.23-.07.47-.13.7-.19.07-.02.15-.04.22-.05.16-.04.33-.08.5-.12.09-.02.18-.04.27-.06.15-.03.3-.07.46-.1.09-.02.19-.04.28-.06.16-.03.31-.06.47-.09.09-.02.18-.03.27-.05.18-.03.35-.06.53-.09.07-.01.14-.02.21-.03.25-.04.49-.07.74-.1.05,0,.11-.01.16-.02.2-.02.39-.05.59-.07.09,0,.18-.02.27-.02.16-.02.33-.03.49-.05.1,0,.19-.01.29-.02.16-.01.32-.02.48-.03.09,0,.19-.01.28-.02.17,0,.35-.01.52-.02.08,0,.16,0,.25,0,.25,0,.51,0,.77,0,1.21,0,2.4.07,3.57.2.23.02.45.05.68.08.07,0,.13.02.2.03.16.02.32.05.48.07.07.01.14.02.21.03.19.03.38.06.57.1.03,0,.06.01.09.02.22.04.43.08.65.13.07.01.14.03.21.05.15.03.3.06.45.1.08.02.16.04.23.05.16.04.32.08.47.11.06.02.12.03.18.05.2.05.41.11.61.16.08.02.16.05.24.07.13.04.27.08.4.11.09.03.18.05.27.08.13.04.25.08.38.12.08.03.17.05.25.08.19.06.38.13.56.19.09.03.19.07.28.1.11.04.21.08.32.12.1.04.21.08.31.12.1.04.19.08.29.11.1.04.21.08.31.13.1.04.2.08.3.12.19.08.37.16.56.24.08.04.16.07.23.11.12.05.23.11.35.16.07.03.14.07.21.1.12.06.24.12.36.18.03.01.05.03.08.04.27.14.54.27.81.42.04.02.08.05.13.07.13.07.26.14.39.21.05.03.09.05.14.08.13.07.27.15.4.23,0,0,0,0,0,0,.31.18.62.37.92.56,0,0,0,0,0,0,.14.09.27.18.41.27.03.02.06.04.09.06.19.13.39.26.58.39-.73,2.68-2.32,5.13-4.51,6.83-1.21.94-2.58,1.65-3.71,2.67-1.14,1.02-2.04,2.47-1.9,3.98.06.67.33,1.33.23,2-.25,1.66-2.63,2.14-4.07,1.27-1.43-.88-2.19-2.5-3.08-3.92-.89-1.42-2.25-2.83-3.93-2.77-2.09.07-3.43,2.52-3.13,4.59.3,2.07,1.72,3.78,3.08,5.37,1.71,1.98,3.46,4,5.73,5.3,4.26,2.45,9.87,2.13,13.69,5.23,3.02,2.45,4.22,6.73,3.49,10.55Z"/>
          <path class="cls-9" d="m15.41,8.77c1.42-1.29,2.84-2.58,4.26-3.87,1.1-1,2.24-2.02,3.63-2.55,1.37-.52,2.88-.51,4.35-.5l7.74.07c1.82.02,3.74.06,5.31.97,1.49.86,2.51,2.5,2.62,4.22s-.67,3.48-2.03,4.53c-.99.77-2.3,1.23-2.91,2.33-.25.45-.35.96-.59,1.42s-.67.87-1.19.84c-.56-.03-.94-.57-1.31-1-1.58-1.85-4.25-2.44-6.66-2.11-1.52.21-3.08.8-3.97,2.04-1.03,1.44-.92,3.39-.53,5.11.39,1.72,1.04,3.42.97,5.19-2.05-.88-3.59-2.88-3.91-5.09-.11-.73-.11-1.52-.56-2.1-.37-.47-.96-.7-1.49-.98-1.59-.85-2.8-2.4-3.24-4.15-.44-1.75-2.61-1.85-1.61-3.36-.48.4,1.7-1.26,1.12-1.02Z"/>
          <path class="cls-9" d="m38.78,43.01c.92,2.28,1.06,4.87.39,7.24-.67,2.37-2.15,4.5-4.13,5.96-.8.59-1.78,1.23-1.84,2.22,4.15.4,8.46-1.26,11.26-4.36.99-1.09,1.79-2.34,2.58-3.58.63-.98,1.28-2.04,1.24-3.21-.03-.87-.46-1.7-.4-2.57.07-1.05.84-1.99.76-3.04-.07-.94-.82-1.71-1.67-2.13-.85-.42-1.79-.58-2.7-.84-2.05-.61-3.88-1.8-5.67-2.97-.53-.35-3.22-2.6-3.75-2.4-.53.19.16,2.2.28,2.59.8,2.56,2.66,4.62,3.66,7.09Z"/>
          <path class="cls-8" d="m41.35,43.47c.18.75.58,1.44.83,2.17.65,1.87.27,4.06-.96,5.62-.25.32-.55.74-.35,1.09.14.24.48.31.75.22.27-.09.48-.29.68-.49,1.09-1.08,2.11-2.26,2.76-3.65.65-1.39.88-3.03.34-4.47-.72-1.95-4.95-4.15-4.06-.5Z"/>
          <path class="cls-8" d="m25.16,11.22c1.59-.51,3.29-.4,4.96-.42s3.43-.22,4.75-1.23c1-.77,1.65-2.21,1.05-3.31-.45-.82-1.45-1.2-2.38-1.25-.94-.05-1.86.16-2.8.19-1.6.06-3.19-.4-4.79-.23-2.69.27-4.9,2.25-6.51,4.42-.48.65-.94,1.37-.96,2.17-.02.96.6,1.81,1.19,2.57.38.49,1.12,1.46,1.87,1.23.58-.17.48-.7.62-1.21.4-1.45,1.59-2.48,3-2.93Z"/>
          <path class="cls-6" d="m2.57,37.78c1.23,6.22,4.75,11.86,9.35,16.21,1.75,1.65,3.68,3.16,5.92,4.06,2.23.9,4.79,1.14,7.04.29,3.27-1.24,5.33-4.54,6.37-7.87,1.1-3.52,1.31-7.35.3-10.9-1.01-3.54-3.29-6.77-6.46-8.64-2.46-1.45-5.31-2.05-7.98-3.05-2.67-1-5.35-2.6-6.49-5.21-.33-.74-.51-1.54-.86-2.28-.34-.74-.88-1.43-1.65-1.7-1.83-.64-2.07,1.39-2.73,2.5-.98,1.65-1.78,3.36-2.33,5.2-1.09,3.68-1.23,7.63-.49,11.39Z"/>
          <path class="cls-7" d="m7.24,40.6c.64,2.98,2.63,5.45,4.57,7.8,1.42,1.73,2.88,3.49,4.79,4.66,1.91,1.17,4.39,1.64,6.4.66,2.5-1.23,3.54-4.31,3.48-7.1-.1-4.18-2.25-8.27-5.64-10.73-3.11-2.25-7.32-3.36-9.19-6.71-.51-.92-1.33-3.26-2.83-2.82-1.11.33-.81,2.03-.84,2.91-.12,3.76-1.54,7.56-.73,11.33Z"/>
          <path class="cls-13" d="m12.16,41.56c.31,1.6,1.23,3.02,2.21,4.33.77,1.03,1.61,2.05,2.74,2.67,1.13.62,2.6.76,3.66.02,1.46-1.01,1.55-3.15,1.07-4.86-.77-2.75-2.64-5.16-5.11-6.59-.54-.31-1.13-.58-1.75-.64-2.35-.19-3.16,3.3-2.82,5.06Z"/>
          <path class="cls-6" d="m43.83,18.21c-.92,1.69-1.15,3.77-2.46,5.18-.8.85-2,1.49-2.17,2.64-.15,1.05.66,1.98,1.49,2.63,2.03,1.58,4.48,2.47,6.81,3.57s4.64,2.5,5.95,4.71c1.75,2.97,1.3,6.69.93,10.12-.07.67-.08,1.47.45,1.87.53.4,1.3.16,1.87-.19,2.2-1.39,3.07-4.13,3.59-6.68.84-4.05,1.22-8.2,1.14-12.34-.08-3.9-.58-7.83-1.99-11.47-.72-1.85-5.17-10.51-7.82-8.17-.66.58-1.08,1.55-1.72,2.19-.66.67-1.4,1.25-2.13,1.85-1.47,1.2-3.02,2.41-3.94,4.1Z"/>
          <path class="cls-7" d="m48.12,17.78c-1.56,1.31-2.61,3.14-3.36,5.04-.28.7-.52,1.46-.34,2.19.32,1.29,1.77,1.89,2.98,2.44,2.52,1.14,4.77,2.86,6.54,4.98.67.81,1.48,1.77,2.53,1.66,1.28-.14,1.77-1.74,1.87-3.03.31-3.9-.16-7.85-1.35-11.57-.54-1.69-1.41-3.55-3.37-3.56-1.96-.02-3.99.59-5.5,1.86Z"/>
          <path class="cls-13" d="m50.35,20.91c-.74.38-1.23,1.19-1.25,2.02-.01.9.5,1.73,1.18,2.32s1.51.97,2.32,1.34c.33.15.68.3,1.04.26.71-.08,1.12-.85,1.24-1.56.39-2.39-1.77-5.82-4.53-4.38Z"/>
        </g>
        <g>
          <path class="cls-10" d="m35.57.2c10.08,6.07,16.94,18.03,16.94,31.8s-6.86,25.74-16.94,31.8c15.99-1.77,28.43-15.34,28.43-31.8S51.56,1.97,35.57.2Z"/>
          <path class="cls-11" d="m52.5,32c0-13.77-6.86-25.74-16.94-31.8-1.17-.13-2.36-.2-3.57-.2C14.33,0,0,14.33,0,32s14.33,32,32,32c1.21,0,2.4-.07,3.57-.2,10.08-6.07,16.94-18.03,16.94-31.8Z"/>
          <ellipse class="cls-5" cx="21.44" cy="20.66" rx="17.45" ry="12.87" transform="translate(-8.32 19.6) rotate(-41.91)"/>
          <ellipse class="cls-4" cx="21.16" cy="17.44" rx="9.95" ry="7.34" transform="translate(-6.23 18.59) rotate(-41.91)"/>
          <ellipse class="cls-3" cx="22.03" cy="15.41" rx="5.49" ry="4.05" transform="translate(-4.66 18.66) rotate(-41.91)"/>
        </g>
      </g>
    </g>
  </g>
</svg>