<?xml version="1.0" encoding="UTF-8"?>
<svg xmlns="http://www.w3.org/2000/svg" viewBox="0 0 64 64">
  <defs>
    <style>
      .cls-1 {
        isolation: isolate;
      }

      .cls-2 {
        opacity: .26;
      }

      .cls-2, .cls-3, .cls-4 {
        fill: #fff;
      }

      .cls-5 {
        fill: #a9361c;
      }

      .cls-6 {
        fill: #f39a90;
      }

      .cls-7 {
        fill: #db5930;
      }

      .cls-3 {
        opacity: .2;
      }

      .cls-8 {
        fill: #f6b5b2;
      }

      .cls-4 {
        opacity: .15;
      }

      .cls-9 {
        mix-blend-mode: multiply;
        opacity: .18;
      }

      .cls-9, .cls-10 {
        fill: #010101;
      }

      .cls-11 {
        fill: #bd4524;
      }

      .cls-10 {
        opacity: 0;
      }
    </style>
  </defs>
  <g class="cls-1">
    <g id="Ebene_1" data-name="Ebene 1">
      <g>
        <g>
          <g>
            <path class="cls-7" d="m63.46,26.12c-.64-3.44-1.83-6.68-3.47-9.64-.32-.58-.66-1.15-1.02-1.71-1.94-3.03-4.38-5.72-7.21-7.94C47.2,3.25,41.64.87,35.57.2c-1.17-.13-2.36-.2-3.57-.2-7.45,0-14.31,2.55-19.74,6.82-2.47,1.94-4.65,4.24-6.46,6.81-1.52,2.16-2.77,4.51-3.72,7.01-.69,1.82-1.22,3.71-1.57,5.66C.21,27.96.04,29.66,0,31.39c0,.2,0,.41,0,.61,0,1.48.1,2.93.3,4.36.07.49.15.98.24,1.47.39,2.13.99,4.19,1.78,6.15.9,2.23,2.04,4.33,3.4,6.27,1.56,2.24,3.39,4.27,5.46,6.04,3.23,2.77,7.02,4.91,11.18,6.22,3.04.96,6.28,1.48,9.64,1.48,1.21,0,2.4-.07,3.57-.2.5-.06,1-.12,1.5-.2,3.52-.56,6.84-1.69,9.88-3.3,3.26-1.73,6.19-4,8.66-6.7,1.58-1.72,2.96-3.61,4.14-5.65,1.31-2.27,2.35-4.72,3.07-7.31.74-2.65,1.15-5.44,1.18-8.33,0-.11,0-.21,0-.32,0-2.01-.19-3.97-.54-5.88Z"/>
            <path class="cls-11" d="m29.19,8.09c-2.09.38-4.1,2.01-4.19,4.13-.07,1.8,1.23,3.38,2.73,4.38,1.5.99,3.23,1.58,4.76,2.54s2.89,2.45,2.96,4.25c.12,3.2-3.82,5.6-3.42,8.78.33,2.54,3.24,3.86,5.79,4.11,4.53.45,9.01-.91,13.36-2.26,1.88-.58,3.88-1.25,5.1-2.8,1.2-1.53,1.37-3.72.65-5.52-.72-1.8-2.24-3.22-3.99-4.06-1.69-.81-3.73-1.24-4.77-2.79-.5-.74-.69-1.64-.96-2.49-1.11-3.43-3.91-6.2-7.25-7.49-1.63-.63-2.97-.63-4.66-.54-2.05.11-4.05-.61-6.1-.23Z"/>
            <path class="cls-5" d="m35.3,16.48c.75.57,1.62.98,2.36,1.56,1.5,1.16,2.46,3.25,1.74,5.01-.61,1.49-2.33,2.65-2.09,4.25.15,1.02,1.12,1.76,2.12,1.98,1.01.22,2.05.02,3.06-.18,1.13-.22,2.46-.61,2.79-1.72.27-.9-.28-1.81-.52-2.72-.34-1.27-.08-2.61-.1-3.92-.04-2.28-1-4.53-2.6-6.14-1.46-1.47-4.05-2.86-6.2-2.73-2.7.17-2.21,3.35-.55,4.61Z"/>
            <path class="cls-11" d="m28.93,35.93c.73,1.03,1.91,1.62,3.02,2.21,1.11.59,2.26,1.28,2.83,2.4.46.89.49,1.93.51,2.93.03,1.2-.13,2.69-1.24,3.13-1.33.53-2.55-.94-3.92-1.36-1.17-.36-2.43.09-3.51.66-1.08.57-2.12,1.29-3.32,1.52-1.7.32-3.42-.37-4.96-1.15-1.64-.83-3.29-1.85-4.23-3.43-.94-1.58-.92-3.87.49-5.05,1.22-1.02,3.03-.92,4.45-1.65,1.14-.58,1.94-1.65,2.64-2.73.7-1.07,1.35-2.21,2.32-3.04.97-.83,2.37-1.31,3.55-.83,2.83,1.15,0,4.46,1.38,6.4Z"/>
            <path class="cls-11" d="m24.73,50.41c1.02-.78,1.91-1.82,3.14-2.18,2.02-.59,4.02.86,6.07,1.34,2.05.47,4.2-.05,6.19-.74,1.99-.7,3.94-1.58,6.02-1.86,2.09-.28,4.41.16,5.81,1.74.73.82,1.13,2.12.46,2.99-.56.73-1.64.87-2.22,1.58-.5.61-.5,1.48-.73,2.24-.44,1.42-1.75,2.44-3.16,2.89-1.41.46-2.93.45-4.42.39-1.48-.05-2.99-.13-4.44.2-1.94.45-3.82,1.63-5.76,1.21-.87-.19-1.63-.68-2.48-.96-1.27-.41-2.64-.3-3.98-.34-2.52-.08-5.01-.76-7.22-1.96-1.1-.6-2.39-1.51-2.52-2.88-.11-1.09.48-2.11,1.59-2.2,1.16-.09,2.3.32,3.5.18,1.5-.17,2.95-.74,4.15-1.65Z"/>
            <path class="cls-5" d="m29.61,55.8c1.58.35,3.13.85,4.75.9,1.86.06,3.7-.47,5.56-.56,1.26-.06,2.57.06,3.73-.43,1.16-.49,2.06-1.91,1.45-3.01-.39-.7-1.25-1.02-2.05-1.01s-1.57.27-2.35.45c-2.68.63-5.48.33-8.23.26-2.29-.06-6.62-.17-8.29,1.8-.95,1.12.19,1.59,1.15,1.47,1.51-.18,2.8-.2,4.3.14Z"/>
          </g>
          <path class="cls-6" d="m28.45.62c4.84-.69,9.9.21,14.19,2.55.45.25.93.55,1.07,1.05.19.69-.43,1.39-1.13,1.57-.7.18-1.43-.01-2.13-.17-1.57-.36-3.17-.57-4.77-.63-1.18-.05-2.38-.01-3.52.28-.94.24-1.84.66-2.79.83-1.72.3-3.48-.22-5.22-.22-1.42,0-2.85.34-4.26.16-.73-.09-1.56-.46-1.65-1.19-.05-.42.18-.84.51-1.12.52-.45,1.24-.62,1.87-.86.85-.33,1.7-.65,2.56-.94,1.72-.58,3.48-1.05,5.28-1.31Z"/>
          <path class="cls-8" d="m30.1.97c2.44-.09,4.87.38,7.18,1.17.3.1.61.22.82.45.22.23.31.61.13.86-.21.29-.62.29-.98.27-1.91-.1-3.84,0-5.73.29-1.2.19-2.41.45-3.62.33-1.12-.11-2.21-.56-3.33-.41-.26.04-.51.1-.77.09-.64-.03-.93-.64-.41-1.04.58-.44,1.36-.76,2.03-1.04,1.48-.6,3.08-.92,4.68-.98Z"/>
        </g>
        <g>
          <path class="cls-9" d="m35.57.2c10.08,6.07,16.94,18.03,16.94,31.8s-6.86,25.74-16.94,31.8c15.99-1.77,28.43-15.34,28.43-31.8S51.56,1.97,35.57.2Z"/>
          <path class="cls-10" d="m52.5,32c0-13.77-6.86-25.74-16.94-31.8-1.17-.13-2.36-.2-3.57-.2C14.33,0,0,14.33,0,32s14.33,32,32,32c1.21,0,2.4-.07,3.57-.2,10.08-6.07,16.94-18.03,16.94-31.8Z"/>
          <ellipse class="cls-4" cx="21.44" cy="20.66" rx="17.45" ry="12.87" transform="translate(-8.32 19.6) rotate(-41.91)"/>
          <ellipse class="cls-3" cx="21.16" cy="17.44" rx="9.95" ry="7.34" transform="translate(-6.23 18.59) rotate(-41.91)"/>
          <ellipse class="cls-2" cx="22.03" cy="15.41" rx="5.49" ry="4.05" transform="translate(-4.66 18.66) rotate(-41.91)"/>
        </g>
      </g>
    </g>
  </g>
</svg>