<?xml version="1.0" encoding="UTF-8"?>
<svg xmlns="http://www.w3.org/2000/svg" viewBox="0 0 64 64">
  <defs>
    <style>
      .cls-1 {
        fill: #bfb5af;
      }

      .cls-2 {
        isolation: isolate;
      }

      .cls-3 {
        fill: #baa394;
      }

      .cls-4 {
        opacity: .26;
      }

      .cls-4, .cls-5, .cls-6 {
        fill: #fff;
      }

      .cls-5 {
        opacity: .2;
      }

      .cls-6 {
        opacity: .15;
      }

      .cls-7 {
        mix-blend-mode: multiply;
        opacity: .18;
      }

      .cls-7, .cls-8 {
        fill: #010101;
      }

      .cls-8 {
        opacity: 0;
      }

      .cls-9 {
        fill: #aa9b93;
      }
    </style>
  </defs>
  <g class="cls-2">
    <g id="Ebene_1" data-name="Ebene 1">
      <g>
        <g>
          <path class="cls-3" d="m64,32c0,16.47-12.44,30.03-28.43,31.8-1.17.13-2.36.2-3.57.2-8.43,0-16.1-3.26-21.82-8.59C3.92,49.57,0,41.24,0,32,0,14.33,14.33,0,32,0c1.21,0,2.4.07,3.57.2,3.31.37,6.46,1.24,9.38,2.53,11.22,4.97,19.05,16.21,19.05,29.27Z"/>
          <path class="cls-9" d="m51.86,37.57c-5.36,3.19-13.44-.08-17.81,4.38-3.57,3.64-2.15,10.19-5.48,14.05-2.52,2.92-6.96,3.3-10.74,2.52-2.73-.57-5.32-1.64-7.66-3.11C3.92,49.57,0,41.24,0,32,0,14.33,14.33,0,32,0c1.21,0,2.4.07,3.57.2,3.31.37,6.46,1.24,9.38,2.53,3.47,1.79,6.42,4.25,8.09,7.39,3.71,6.99,7.37,22.36-1.18,27.45Z"/>
          <path class="cls-9" d="m44.66,42.49c-3.44.2-7.05,1.61-8.78,4.58-.94,1.62-1.23,3.53-1.87,5.29-1.32,3.63-4.08,6.51-6.77,9.28,5.45,1.28,11.32.66,16.38-1.73,5.06-2.39,9.27-6.53,11.74-11.55,1.06-2.16,1.7-4.8-1.18-5.19-3.07-.41-6.42-.86-9.53-.68Z"/>
          <path class="cls-1" d="m32.17,16.79c-1.06-1.34-1.25-3.44-.1-4.7,1.15-1.26,3.66-.99,4.2.63-.56-2.34-2.77-4.19-5.18-4.32-2.41-.13-4.8,1.47-5.61,3.74-.21.6-.33,1.25-.66,1.8-.91,1.49-3.03,1.64-4.75,1.34-1.73-.3-3.56-.85-5.17-.17-2.27.96-2.79,4.54-.89,6.11-.4-.83.04-1.89.8-2.41.76-.53,1.74-.62,2.65-.53,3.14.3,6.03,2.79,6.53,5.91.5,3.12-1.66,6.51-4.76,7.14-3.09.63-6.52-1.88-6.63-5.04-1.52.61-2.27,2.51-1.87,4.1.4,1.59,1.75,2.82,3.27,3.43,1.52.61,3.21.68,4.84.58,3.08-.18,6.51-1.23,7.85-4.01,1.11-2.32.68-5.62,2.89-6.95,2.03-1.22,4.59.32,6.95.24,2.38-.08,4.55-2.07,4.83-4.43.28-2.36-1.36-4.81-3.65-5.44,1.42.39-.13,3.63-.94,4.07-1.51.82-3.58.2-4.61-1.1Z"/>
          <path class="cls-1" d="m13.05,42.51c.12,1.05.65,2.04,1.35,2.83,1.41,1.6,3.67,2.48,5.75,2.05,2.09-.43,3.87-2.26,4.05-4.39-1.46,1.6-3.69,2.46-5.84,2.26-1.28-.12-2.67-.74-3.04-1.97-.31-1,.2-2.13,1.04-2.75.84-.62,1.95-.78,2.99-.67,1.04.11,1.98.52,2.97.8-1.22-4.29-9.81-2.8-9.26,1.82Z"/>
          <path class="cls-1" d="m34.41,36.92c2.44-.71,5.09-.09,7.57-.65,2.3-.52,4.4-2.2,5.08-4.46.67-2.26-.35-5.01-2.49-6,1.59,1.29,1.68,3.97.28,5.46-1.39,1.5-3.94,1.65-5.6.45s-2.32-3.54-1.7-5.48c-1.04.68-1.35,2.06-1.32,3.3.03,1.24.3,2.49.07,3.7-.28,1.48-1.35,2.79-2.75,3.35-1.72.7-3.95.41-5.16,1.82-.77.89-.82,2.2-.61,3.36.21,1.16.64,2.28.73,3.45.17,2.35-1.24,4.73-3.38,5.72,2.21-1.02,3.9-2.77,4.36-5.25.2-1.12-.28-2.09-.06-3.21.24-1.21.82-2.36,1.61-3.3.88-1.05,2.06-1.87,3.38-2.26Z"/>
          <path class="cls-9" d="m60,39.99c1.42-.85,2.48-2.29,2.87-3.9.21-.88.21-1.87-.29-2.62-.77-1.15-2.36-1.32-3.75-1.38-.57-.03-1.16-.05-1.67.2-.51.24-.91.83-.73,1.37.8-.91,2.36-.89,3.25-.08.89.81,1.1,2.22.64,3.34s-1.5,1.93-2.64,2.31c-1.16.39-2.34.31-3.53.19.65.62,1.29,1.31,2.21,1.45.99.14,2.9-.12,3.64-.87Z"/>
          <path class="cls-1" d="m51.84,47.18c.78,1.58.32,3.65-1.01,4.81-1.33,1.15-3.39,1.34-4.94.5,1.13.34,2.44-.1,3.16-1.03.72-.93.82-2.3.27-3.34-.55-1.05-1.7-1.73-2.88-1.75-.9-.01-1.82.36-2.37,1.07,1.28-3.12,6.27-3.3,7.78-.26Z"/>
          <path class="cls-1" d="m45.11,56.06c-1.23.87-3.01.97-4.23.1s-1.68-2.75-.83-4,2.92-1.46,3.89-.31c-.39-1.41-1.9-2.4-3.35-2.21s-2.64,1.55-2.65,3.01c0,1.34.85,2.6.71,3.93-.15,1.32-1.29,2.36-2.56,2.79-1.36.46-2.78.07-4.1.36,3.99,2.69,10.03-1.48,13.13-3.67Z"/>
        </g>
        <g>
          <path class="cls-7" d="m35.57.2c10.08,6.07,16.94,18.03,16.94,31.8s-6.86,25.74-16.94,31.8c15.99-1.77,28.43-15.34,28.43-31.8S51.56,1.97,35.57.2Z"/>
          <path class="cls-8" d="m52.5,32c0-13.77-6.86-25.74-16.94-31.8-1.17-.13-2.36-.2-3.57-.2C14.33,0,0,14.33,0,32s14.33,32,32,32c1.21,0,2.4-.07,3.57-.2,10.08-6.07,16.94-18.03,16.94-31.8Z"/>
          <ellipse class="cls-6" cx="21.44" cy="20.66" rx="17.45" ry="12.87" transform="translate(-8.32 19.6) rotate(-41.91)"/>
          <ellipse class="cls-5" cx="21.16" cy="17.44" rx="9.95" ry="7.34" transform="translate(-6.23 18.59) rotate(-41.91)"/>
          <ellipse class="cls-4" cx="22.03" cy="15.41" rx="5.49" ry="4.05" transform="translate(-4.66 18.66) rotate(-41.91)"/>
        </g>
      </g>
    </g>
  </g>
</svg>