<?xml version="1.0" encoding="UTF-8"?>
<svg xmlns="http://www.w3.org/2000/svg" viewBox="0 0 64 37.84">
  <defs>
    <style>
      .cls-1 {
        fill: #ceaa91;
      }

      .cls-2 {
        fill: #eed5c4;
      }

      .cls-3 {
        fill: #edc4a4;
      }

      .cls-4 {
        fill: #f5ba90;
      }

      .cls-5 {
        opacity: .4;
      }

      .cls-5, .cls-6, .cls-7 {
        fill: #fff;
      }

      .cls-6 {
        opacity: .3;
      }

      .cls-8 {
        isolation: isolate;
      }

      .cls-9 {
        fill: #d2beb3;
      }

      .cls-10 {
        fill: #554133;
      }

      .cls-11 {
        fill: #cea080;
      }

      .cls-12 {
        fill: #d4c1b4;
      }

      .cls-7 {
        opacity: .25;
      }

      .cls-13 {
        fill: none;
      }

      .cls-14 {
        fill: #d3b49f;
      }

      .cls-15 {
        fill: #c6afa2;
      }

      .cls-16 {
        fill: #ba8d6e;
      }

      .cls-17 {
        fill: #ddb394;
      }

      .cls-18 {
        mix-blend-mode: multiply;
        opacity: .18;
      }

      .cls-18, .cls-19 {
        fill: #010101;
      }

      .cls-20 {
        fill: #cca78c;
      }

      .cls-19 {
        opacity: 0;
      }

      .cls-21 {
        fill: #ceaa93;
      }
    </style>
  </defs>
  <g class="cls-8">
    <g id="Ebene_1" data-name="Ebene 1">
      <g>
        <g>
          <g>
            <path class="cls-3" d="m22.07,3.8c-.69.23-1.41.4-2.13.53,1.45-1.2,3.11-2.2,4.96-2.95.66-.27,1.33-.49,2-.68.29-.08.58-.15.87-.22-1.74,1.38-3.59,2.62-5.69,3.32Z"/>
            <path class="cls-14" d="m30.05,27.51c2.97-1.28,6.09-2.16,9.2-3.04,3.84-1.08,7.67-2.17,11.51-3.25-.05.39-.11.78-.18,1.16-3.68.72-7.22,2.51-10.59,4.26-3.57,1.86-7.15,3.72-10.86,5.31-2.44,1.04-4.93,1.96-7.44,2.84-1.31-.85-2.52-1.86-3.59-3.02,1.54-.07,3.08-.44,4.54-.95,2.55-.9,4.92-2.24,7.41-3.31Z"/>
            <path class="cls-3" d="m27.73,24.38c3.67-1.13,7.58-1.36,11.2-2.65,4.17-1.48,7.78-4.31,11.6-6.56.41,2.03.48,4.07.23,6.05-3.84,1.08-7.67,2.17-11.51,3.25-3.11.88-6.23,1.76-9.2,3.04-2.49,1.07-4.86,2.41-7.41,3.31-1.46.52-3,.88-4.54.95-.78-.84-1.49-1.76-2.12-2.76,3.98-1.11,7.73-3.41,11.74-4.64Z"/>
            <path class="cls-3" d="m40.98,35.56c-.61.33-1.25.63-1.91.9-2.63,1.06-5.36,1.49-8.02,1.36,4.89-1.97,9.79-3.94,14.68-5.9-1.35,1.43-2.95,2.67-4.75,3.65Z"/>
            <path class="cls-4" d="m37.27,33.42c3.72-1.66,7.36-3.52,11.12-5.08-.74,1.29-1.63,2.49-2.65,3.58-4.89,1.97-9.79,3.94-14.68,5.9-1.47-.07-2.92-.32-4.31-.72,3.61-.8,7.14-2.17,10.53-3.68Z"/>
            <path class="cls-9" d="m36.04,30.67c4.36-2.01,8.95-3.46,13.55-4.84-.34.86-.74,1.7-1.2,2.5-3.75,1.56-7.4,3.42-11.12,5.08-3.39,1.51-6.92,2.88-10.53,3.68-.95-.28-1.88-.63-2.77-1.05,4.21-1.23,8.06-3.54,12.07-5.38Z"/>
            <path class="cls-11" d="m29.13,31.96c3.71-1.58,7.28-3.45,10.86-5.31,3.37-1.76,6.91-3.55,10.59-4.26-.22,1.18-.55,2.33-.99,3.45-4.6,1.37-9.19,2.83-13.55,4.84-4.01,1.84-7.86,4.15-12.07,5.38-.78-.37-1.54-.78-2.27-1.26,2.51-.88,5-1.8,7.44-2.84Z"/>
            <path class="cls-1" d="m23.78,21.32c2.38-1.04,4.97-1.43,7.49-2.03,6.42-1.53,12.38-4.43,18.17-7.63.02.06.05.12.07.18.44,1.1.78,2.22,1.01,3.34-3.82,2.24-7.43,5.08-11.6,6.56-3.62,1.29-7.53,1.52-11.2,2.65-4.01,1.23-7.76,3.54-11.74,4.64-.53-.84-1-1.74-1.4-2.68,3.25-1.08,6-3.62,9.2-5.02Z"/>
            <path class="cls-16" d="m27.18,10.34c2.31-1.58,4.03-3.92,6.37-5.46,2.01-1.33,4.41-2.01,6.58-3.03,1.24.59,2.43,1.32,3.52,2.18-1.61.5-3.22,1-4.84,1.5-1.51.47-3.03.94-4.41,1.73-1.55.89-2.85,2.15-4.15,3.39-3.01,2.89-6.33,5.89-10.47,6.49-1.26.18-2.55.13-3.79.43-1.07.26-2.04.76-2.95,1.37,0-1.42.16-2.83.47-4.19,2.36-.14,4.73-.86,7.01-1.57,2.3-.72,4.65-1.46,6.64-2.83Z"/>
            <path class="cls-20" d="m20.49,7.43c-1.24.73-2.36,1.69-3.68,2.27-.53.23-1.07.4-1.63.52,1.16-2.24,2.76-4.25,4.75-5.89.72-.14,1.43-.3,2.13-.53,2.1-.7,3.95-1.93,5.69-3.32C29.81,0,31.88-.11,33.9.1c-1.05.84-1.93,1.91-2.99,2.75-3,2.35-7.13,2.65-10.42,4.58Z"/>
            <path class="cls-15" d="m22.82,9.84c-1.71.75-3.57,1.1-5.38,1.6-1.15.32-2.31.72-3.34,1.31.3-.87.66-1.71,1.08-2.53.56-.12,1.1-.28,1.63-.52,1.32-.58,2.43-1.54,3.68-2.27,3.28-1.93,7.42-2.23,10.42-4.58,1.06-.83,1.95-1.9,2.99-2.75,1.07.11,2.13.31,3.16.6-2.96,1.52-5.78,3.29-8.44,5.28-1.86,1.4-3.67,2.92-5.8,3.85Z"/>
            <path class="cls-17" d="m40.13,1.85c-2.18,1.02-4.57,1.7-6.58,3.03-2.34,1.54-4.06,3.88-6.37,5.46-1.99,1.36-4.34,2.1-6.64,2.83-2.28.71-4.65,1.43-7.01,1.57.15-.68.35-1.34.57-1.99,1.03-.59,2.19-.99,3.34-1.31,1.8-.5,3.66-.85,5.38-1.6,2.13-.94,3.94-2.46,5.8-3.85,2.66-1.99,5.49-3.76,8.44-5.28,1.05.29,2.08.68,3.07,1.15Z"/>
            <path class="cls-21" d="m31.66,13.19c4.64-2.47,9.17-5.18,13.89-7.46.49.51.96,1.05,1.4,1.62-.23.22-.45.44-.66.66-1.45,1.48-2.81,3.1-4.58,4.17-1.57.95-3.37,1.42-5.14,1.91-7.93,2.21-15.68,5.09-23.13,8.6-.18-.87-.29-1.73-.35-2.6,6.55-.98,12.7-3.78,18.55-6.9Z"/>
            <path class="cls-12" d="m16.01,17.56c1.24-.3,2.53-.25,3.79-.43,4.13-.6,7.45-3.6,10.47-6.49,1.29-1.24,2.59-2.5,4.15-3.39,1.37-.79,2.9-1.26,4.41-1.73,1.61-.5,3.22-1,4.84-1.5.67.52,1.3,1.09,1.9,1.71-4.73,2.28-9.26,4.98-13.89,7.46-5.85,3.12-12.01,5.92-18.55,6.9-.02-.39-.04-.78-.04-1.17.92-.61,1.89-1.11,2.95-1.37Z"/>
            <path class="cls-2" d="m36.58,14.09c1.77-.49,3.57-.96,5.14-1.91,1.77-1.07,3.13-2.69,4.58-4.17.22-.22.44-.44.66-.66,1,1.29,1.84,2.73,2.49,4.3-5.79,3.21-11.76,6.1-18.17,7.63-2.52.6-5.12.99-7.49,2.03-3.2,1.4-5.95,3.94-9.2,5.02-.05-.11-.09-.22-.14-.33-.33-.81-.59-1.63-.8-2.46-.07-.29-.14-.57-.19-.86,7.45-3.51,15.2-6.39,23.13-8.6Z"/>
          </g>
          <g>
            <path class="cls-18" d="m26.89.7c6.87,1.09,13.28,6.13,16.33,13.68,3.05,7.55,1.94,15.62-2.24,21.18,8.37-4.52,12.18-14.7,8.54-23.73C45.87,2.81,36.05-1.87,26.89.7Z"/>
            <path class="cls-19" d="m43.22,14.38C40.17,6.83,33.76,1.79,26.89.7c-.67.19-1.34.41-2,.68-9.69,3.92-14.36,14.94-10.45,24.63,3.92,9.69,14.94,14.36,24.63,10.45.66-.27,1.3-.57,1.91-.9,4.18-5.56,5.29-13.64,2.24-21.18Z"/>
            <ellipse class="cls-7" cx="23.68" cy="15.05" rx="10.32" ry="7.61" transform="translate(-.24 29.7) rotate(-63.92)"/>
            <ellipse class="cls-6" cx="22.81" cy="13.34" rx="5.88" ry="4.34" transform="translate(.8 27.97) rotate(-63.92)"/>
            <ellipse class="cls-5" cx="22.84" cy="12.04" rx="3.25" ry="2.4" transform="translate(1.99 27.26) rotate(-63.92)"/>
          </g>
        </g>
        <g>
          <g>
            <path class="cls-13" d="m49.54,11.87c.44,1.1.78,2.22,1.01,3.34.11.54.19,1.08.26,1.62,3.2-2.74,4.79-5.3,4.05-7.11-.73-1.81-3.65-2.55-7.85-2.29.98,1.28,1.82,2.71,2.47,4.27.02.06.05.12.07.18Z"/>
            <path class="cls-17" d="m63.76,6.13c-1.48-3.66-9.4-4.17-19.85-1.86.27.22.54.45.81.69,8.91-1.74,15.54-1.14,16.83,2.07,1.3,3.21-3.05,8.24-10.66,13.18-.02.35-.06.7-.1,1.05,9.12-5.61,14.46-11.47,12.98-15.13Z"/>
            <path class="cls-16" d="m60.43,7.47c1.21,2.98-2.65,7.6-9.52,12.2,0,.18-.02.36-.03.53,7.61-4.94,11.96-9.97,10.66-13.18-1.3-3.21-7.92-3.81-16.83-2.07.13.12.26.24.39.37,8.13-1.47,14.12-.83,15.33,2.16Z"/>
            <path class="cls-21" d="m45.68,5.89c6.96-1.08,12.01-.39,13.08,2.25,1.07,2.64-2.08,6.64-7.84,10.71,0,.27,0,.54-.01.82,6.87-4.59,10.73-9.22,9.52-12.2-1.21-2.98-7.19-3.62-15.33-2.16.16.15.31.31.47.46.04.04.07.08.11.11Z"/>
            <path class="cls-12" d="m57.64,8.6c.97,2.41-1.71,6-6.73,9.7,0,.19,0,.37.01.56,5.75-4.06,8.9-8.07,7.84-10.71-1.07-2.64-6.12-3.33-13.08-2.25.13.13.25.27.38.41,6.18-.83,10.61-.11,11.59,2.3Z"/>
            <path class="cls-1" d="m57.64,8.6c-.97-2.41-5.41-3.12-11.59-2.3.13.14.25.28.38.43,5.39-.59,9.22.14,10.09,2.32.88,2.17-1.36,5.35-5.65,8.68.01.19.02.38.03.57,5.02-3.7,7.7-7.29,6.73-9.7Z"/>
            <path class="cls-10" d="m47,7.43c4.2-.25,7.12.48,7.85,2.29.73,1.81-.86,4.37-4.05,7.11.03.3.06.6.08.9,4.29-3.32,6.52-6.51,5.65-8.68-.88-2.17-4.7-2.91-10.09-2.32.18.22.37.44.54.66,0,.01.02.02.03.04Z"/>
          </g>
          <g>
            <path class="cls-13" d="m9.15,28.2c.73,1.81,3.65,2.55,7.85,2.29-.35-.46-.68-.93-1-1.43-.53-.84-1-1.74-1.4-2.68-.05-.11-.09-.22-.14-.33-.33-.81-.59-1.63-.8-2.46-.07-.29-.14-.57-.19-.86-.11-.55-.2-1.1-.26-1.65-3.2,2.74-4.79,5.3-4.06,7.11Z"/>
            <path class="cls-17" d="m2.46,30.91c-1.3-3.21,3.05-8.24,10.66-13.18.02-.35.06-.7.1-1.05C4.11,22.27-1.23,28.14.24,31.8c1.48,3.66,9.4,4.17,19.85,1.86-.27-.22-.54-.45-.81-.69-8.91,1.74-15.53,1.14-16.83-2.07Z"/>
            <path class="cls-16" d="m3.57,30.45c-1.21-2.98,2.65-7.6,9.52-12.2,0-.18.02-.36.03-.53C5.51,22.66,1.16,27.7,2.46,30.91c1.3,3.21,7.92,3.81,16.83,2.07-.13-.12-.26-.24-.39-.37-8.13,1.47-14.12.83-15.32-2.16Z"/>
            <path class="cls-21" d="m3.57,30.45c1.21,2.98,7.19,3.62,15.32,2.16-.2-.19-.39-.38-.57-.58-6.96,1.08-12.01.39-13.08-2.25-1.07-2.64,2.08-6.64,7.84-10.71,0-.03,0-.06,0-.1,0-.24,0-.48.02-.72-6.87,4.59-10.73,9.22-9.52,12.2Z"/>
            <path class="cls-12" d="m17.94,31.63c-6.18.83-10.61.11-11.58-2.3-.97-2.41,1.72-6,6.73-9.7,0-.19-.01-.37-.01-.56-5.75,4.06-8.9,8.07-7.84,10.71,1.07,2.64,6.11,3.33,13.08,2.25-.07-.07-.14-.14-.2-.21-.06-.06-.12-.13-.18-.19Z"/>
            <path class="cls-1" d="m7.47,28.88c-.88-2.17,1.36-5.36,5.65-8.68,0-.02,0-.04,0-.06-.01-.17-.02-.34-.03-.51-5.02,3.7-7.71,7.29-6.73,9.7.97,2.41,5.4,3.12,11.58,2.3-.13-.14-.25-.28-.38-.43-5.39.59-9.21-.14-10.09-2.32Z"/>
            <path class="cls-10" d="m9.15,28.2c-.73-1.81.86-4.37,4.06-7.11-.03-.3-.06-.6-.08-.9-4.29,3.32-6.53,6.51-5.65,8.68.88,2.17,4.7,2.9,10.09,2.32-.19-.23-.38-.46-.57-.7-4.2.25-7.12-.48-7.85-2.29Z"/>
          </g>
          <g>
            <path class="cls-17" d="m35.65,27.99c-5.81,2.35-11.43,4.03-16.36,4.99.26.24.53.47.81.69,4.86-1.07,10.26-2.75,15.83-5,5.57-2.25,10.62-4.8,14.86-7.41.04-.35.08-.7.1-1.05-4.21,2.73-9.42,5.43-15.23,7.78Z"/>
            <path class="cls-16" d="m35.51,27.65c-5.94,2.4-11.67,4.07-16.61,4.96.13.12.26.25.39.37,4.93-.96,10.55-2.64,16.36-4.99,5.81-2.35,11.02-5.05,15.23-7.78.01-.18.02-.36.03-.53-4.17,2.79-9.46,5.58-15.4,7.98Z"/>
            <path class="cls-21" d="m35.3,27.14c-6.13,2.48-12.04,4.13-16.98,4.9.19.2.38.39.57.58,4.94-.89,10.68-2.56,16.61-4.96,5.94-2.4,11.22-5.18,15.4-7.98.01-.27.01-.54.01-.82-4.08,2.89-9.48,5.8-15.62,8.28Z"/>
            <path class="cls-12" d="m50.92,18.86c0-.19,0-.37-.01-.56-3.99,2.95-9.47,5.96-15.74,8.5-6.28,2.54-12.3,4.17-17.22,4.83.06.07.12.13.18.19.07.07.14.14.2.21,4.94-.76,10.85-2.42,16.98-4.9,6.13-2.48,11.53-5.4,15.62-8.28Z"/>
            <path class="cls-1" d="m35.03,26.46c-6.43,2.6-12.59,4.21-17.46,4.74.12.15.25.29.38.43,4.92-.66,10.95-2.29,17.22-4.83,6.28-2.54,11.75-5.55,15.74-8.5,0-.19-.02-.38-.03-.57-3.87,3.01-9.42,6.13-15.85,8.73Z"/>
            <path class="cls-10" d="m34.82,25.94c-6.7,2.71-13.08,4.26-17.82,4.55.18.24.37.47.57.7,4.87-.53,11.03-2.14,17.46-4.74,6.43-2.6,11.98-5.72,15.85-8.73-.02-.3-.05-.6-.08-.9-3.61,3.09-9.28,6.41-15.98,9.11Z"/>
          </g>
        </g>
      </g>
    </g>
  </g>
</svg>