<?xml version="1.0" encoding="UTF-8"?>
<svg xmlns="http://www.w3.org/2000/svg" viewBox="0 0 64 64">
  <defs>
    <style>
      .cls-1 {
        fill: #f1b65d;
      }

      .cls-2 {
        opacity: .4;
      }

      .cls-2, .cls-3, .cls-4 {
        fill: #fff;
      }

      .cls-3 {
        opacity: .3;
      }

      .cls-5 {
        fill: #fcebbd;
      }

      .cls-6 {
        isolation: isolate;
      }

      .cls-7 {
        fill: #d69354;
      }

      .cls-8 {
        fill: #f7ebbc;
      }

      .cls-9 {
        fill: #eda257;
      }

      .cls-10 {
        fill: #e5ae68;
      }

      .cls-11 {
        fill: #f9e1a8;
      }

      .cls-12 {
        fill: #fbf1c6;
      }

      .cls-4 {
        opacity: .25;
      }

      .cls-13 {
        fill: #e1b67b;
      }

      .cls-14 {
        mix-blend-mode: multiply;
        opacity: .18;
      }

      .cls-14, .cls-15 {
        fill: #010101;
      }

      .cls-15 {
        opacity: 0;
      }

      .cls-16 {
        fill: #e6ca86;
      }

      .cls-17 {
        fill: #dfb774;
      }
    </style>
  </defs>
  <g class="cls-6">
    <g id="Ebene_1" data-name="Ebene 1">
      <g>
        <g>
          <g>
            <path class="cls-11" d="m26.04,62.01c-1.23.08-2.46.27-3.68.51,3.04.96,6.28,1.48,9.64,1.48,1.21,0,2.4-.07,3.57-.2.5-.06,1-.12,1.5-.2-3.61-1.07-7.29-1.83-11.03-1.59Z"/>
            <g>
              <path class="cls-16" d="m23.52,19.75c5.46.12,10.92-.48,16.35-1.07,6.7-.73,13.41-1.47,20.11-2.2-.32-.58-.66-1.15-1.02-1.71-6.22,1.21-12.91.65-19.31.03-6.79-.65-13.58-1.31-20.39-1.44-4.49-.09-8.98.05-13.46.26-1.52,2.16-2.77,4.51-3.72,7.01,2.46-.86,5.12-1.27,7.73-1.38,4.57-.2,9.14.4,13.72.5Z"/>
              <path class="cls-12" d="m21.86,26.14c6.47-.56,12.75-2.68,19.24-2.95,7.48-.31,14.94,1.83,22.35,2.93-.64-3.44-1.83-6.68-3.47-9.64-6.7.73-13.41,1.47-20.11,2.2-5.43.59-10.89,1.19-16.35,1.07-4.58-.1-9.15-.7-13.72-.5-2.61.11-5.27.52-7.73,1.38-.69,1.82-1.22,3.71-1.57,5.66,6.94-.79,14.29.45,21.36-.16Z"/>
              <path class="cls-8" d="m31.11,5.91c6.88.25,13.78.85,20.66.92C47.2,3.25,41.64.87,35.57.2c-1.17-.13-2.36-.2-3.57-.2-7.45,0-14.31,2.55-19.74,6.82,6.18-1.03,12.58-1.13,18.85-.9Z"/>
              <path class="cls-1" d="m19.26,13.36c6.82.14,13.61.79,20.39,1.44,6.4.62,13.09,1.18,19.31-.03-1.94-3.03-4.38-5.72-7.21-7.94-6.88-.07-13.78-.67-20.66-.92-6.27-.23-12.67-.13-18.85.9-2.47,1.94-4.65,4.24-6.46,6.81,4.49-.22,8.97-.35,13.46-.26Z"/>
              <path class="cls-7" d="m17.61,33.43c4.38.12,8.7-.91,13.04-1.56,11.04-1.67,22.22-.91,33.34.45,0-.11,0-.21,0-.32,0-2.01-.19-3.97-.54-5.88-7.41-1.1-14.88-3.25-22.35-2.93-6.49.27-12.77,2.4-19.24,2.95-7.07.61-14.42-.63-21.36.16C.21,27.96.04,29.66,0,31.39c5.78-.36,11.7,1.88,17.61,2.04Z"/>
              <path class="cls-10" d="m43.2,48.76c-3-.41-5.84-1.56-8.65-2.69-6.56-2.63-13.67-5.22-20.53-3.54-2.09.51-4.08,1.41-6.21,1.72-1.83.27-3.67.1-5.49-.27.9,2.23,2.04,4.33,3.4,6.27,3.79-1.27,7.97-1.65,11.99-1.98,4.07-.33,8.22-.65,12.21.22,4.63,1.02,8.81,3.59,13.45,4.53,4,.8,8.18.36,12.24.57,1.58-1.72,2.96-3.61,4.14-5.65-2.85.24-5.69.48-8.54.72-2.66.22-5.35.45-8,.09Z"/>
              <path class="cls-13" d="m21.27,57.31c-2.42-.36-4.77-1.16-7.21-1.23-.97-.03-1.93.05-2.88.22,3.23,2.77,7.02,4.91,11.18,6.22,1.22-.24,2.44-.43,3.68-.51,3.74-.24,7.42.52,11.03,1.59,3.52-.56,6.84-1.69,9.88-3.3-2.17-.66-4.24-1.78-6.44-2.41-6.19-1.79-12.87.36-19.24-.58Z"/>
              <path class="cls-5" d="m43.36,53.03c-4.64-.93-8.82-3.51-13.45-4.53-3.99-.88-8.13-.55-12.21-.22-4.02.32-8.2.71-11.99,1.98,1.56,2.24,3.39,4.27,5.46,6.04.95-.17,1.91-.25,2.88-.22,2.44.08,4.8.88,7.21,1.23,6.37.94,13.05-1.2,19.24.58,2.2.63,4.26,1.75,6.44,2.41,3.26-1.73,6.19-4,8.66-6.7-4.06-.22-8.25.23-12.24-.57Z"/>
              <path class="cls-9" d="m51.53,36.4c-3.06-.5-6.19-.09-9.27.26-13.84,1.56-27.82,1.95-41.73,1.17.39,2.13.99,4.19,1.78,6.15,1.82.37,3.66.55,5.49.27,2.13-.31,4.12-1.21,6.21-1.72,6.86-1.67,13.97.92,20.53,3.54,2.81,1.13,5.65,2.27,8.65,2.69,2.65.36,5.34.14,8-.09,2.85-.24,5.69-.48,8.54-.72,1.31-2.27,2.35-4.72,3.07-7.31-.49-.2-.98-.4-1.46-.61-3.21-1.41-6.36-3.08-9.82-3.64Z"/>
              <path class="cls-17" d="m30.65,31.87c-4.34.65-8.66,1.69-13.04,1.56-5.91-.16-11.82-2.41-17.61-2.04,0,.2,0,.41,0,.61,0,1.48.1,2.93.3,4.36.07.49.15.98.24,1.47,13.91.78,27.89.39,41.73-1.17,3.08-.35,6.21-.75,9.27-.26,3.46.56,6.61,2.23,9.82,3.64.48.21.97.42,1.46.61.74-2.65,1.15-5.44,1.18-8.33-11.12-1.36-22.31-2.12-33.34-.45Z"/>
              <path class="cls-10" d="m44.15,39.71c2.06-.54,4.15-1.25,6.28-1.03,2.84.29,5.22,2.18,7.42,3.99.59.48,1.23,1.11,1.11,1.86-.14.84-1.14,1.2-1.98,1.37-7.89,1.58-16.38,1.05-23.57-2.58-.79-.4-2.03-1.68-.75-2.39.63-.35,1.9.14,2.62.13,2.98-.08,5.99-.58,8.88-1.34Z"/>
              <path class="cls-16" d="m52.52,45.12c.62-.01,1.27-.04,1.82-.33.55-.29.96-.94.78-1.53-.11-.35-.4-.62-.7-.83-1.4-1.02-3.2-1.36-4.93-1.35s-3.45.33-5.17.51c-1.56.17-3.13.22-4.7.16-.54-.02-1.12-.05-1.57.25-.28.18-.52.62-.43.96.12.44.6.47,1,.62,1.05.38,2.13.67,3.22.9,2.22.46,4.5.63,6.76.67,1.31.03,2.61.01,3.92-.02Z"/>
              <path class="cls-17" d="m41.16,43.54c3.34.92,6.83,1.27,10.29,1.04.6-.04,1.32-.2,1.49-.77.17-.58-.39-1.13-.94-1.37-.86-.38-1.82-.43-2.76-.34-.93.09-1.85.3-2.77.43-1.44.21-2.91.21-4.34.01-.41-.06-1.52-.36-1.79.09-.3.5.49.82.83.91Z"/>
            </g>
          </g>
          <path class="cls-9" d="m47.08,42.95c.93-.07,1.86-.14,2.79-.21.29-.02.58-.04.85.06.27.11.49.38.45.66-.03.21-.21.38-.4.47-.2.09-.42.1-.63.12-.95.07-1.93.12-2.88-.05-.28-.05-.51-.2-.67-.44-.27-.4.12-.59.49-.62Z"/>
        </g>
        <g>
          <path class="cls-14" d="m35.57.2c10.08,6.07,16.94,18.03,16.94,31.8s-6.86,25.74-16.94,31.8c15.99-1.77,28.43-15.34,28.43-31.8S51.56,1.97,35.57.2Z"/>
          <path class="cls-15" d="m52.5,32c0-13.77-6.86-25.74-16.94-31.8-1.17-.13-2.36-.2-3.57-.2C14.33,0,0,14.33,0,32s14.33,32,32,32c1.21,0,2.4-.07,3.57-.2,10.08-6.07,16.94-18.03,16.94-31.8Z"/>
          <ellipse class="cls-4" cx="21.44" cy="20.66" rx="17.45" ry="12.87" transform="translate(-8.32 19.6) rotate(-41.91)"/>
          <ellipse class="cls-3" cx="21.16" cy="17.44" rx="9.95" ry="7.34" transform="translate(-6.23 18.59) rotate(-41.91)"/>
          <ellipse class="cls-2" cx="22.03" cy="15.41" rx="5.49" ry="4.05" transform="translate(-4.66 18.66) rotate(-41.91)"/>
        </g>
      </g>
    </g>
  </g>
</svg>