<?xml version="1.0" encoding="UTF-8"?>
<svg xmlns="http://www.w3.org/2000/svg" viewBox="0 0 64 64">
  <defs>
    <style>
      .cls-1 {
        fill: #458ccb;
      }

      .cls-2 {
        fill: #458dcb;
      }

      .cls-3 {
        fill: #449dd7;
      }

      .cls-4 {
        isolation: isolate;
      }

      .cls-5 {
        fill: #2f77bc;
      }

      .cls-6 {
        opacity: .26;
      }

      .cls-6, .cls-7, .cls-8 {
        fill: #fff;
      }

      .cls-9 {
        fill: #3d76bb;
      }

      .cls-10 {
        fill: #337abe;
      }

      .cls-11 {
        fill: #3b80c3;
      }

      .cls-12 {
        fill: #3479be;
      }

      .cls-7 {
        opacity: .2;
      }

      .cls-8 {
        opacity: .15;
      }

      .cls-13 {
        fill: #217bc0;
      }

      .cls-14 {
        mix-blend-mode: multiply;
        opacity: .18;
      }

      .cls-14, .cls-15 {
        fill: #010101;
      }

      .cls-15 {
        opacity: 0;
      }
    </style>
  </defs>
  <g class="cls-4">
    <g id="Ebene_1" data-name="Ebene 1">
      <g>
        <g>
          <path class="cls-9" d="m35.57.2c-1.17-.13-2.36-.2-3.57-.2-6.21,0-12,1.77-16.91,4.83,12.61.99,25.21,1.97,37.82,2.96C48.15,3.67,42.16.93,35.57.2Z"/>
          <path class="cls-12" d="m58.79,14.49c-17.22-2.12-34.61-2.88-51.95-2.27-1.4,1.78-2.62,3.71-3.62,5.77,19.55.84,39.1,1.68,58.65,2.52-.82-2.12-1.85-4.14-3.08-6.01Z"/>
          <path class="cls-10" d="m32,64c1.21,0,2.4-.07,3.57-.2,5.48-.61,10.55-2.6,14.84-5.62-13.76-.1-27.5-1.3-41.07-3.59,5.79,5.81,13.81,9.41,22.66,9.41Z"/>
          <path class="cls-1" d="m58.79,14.49c-1.64-2.5-3.62-4.76-5.88-6.71-12.61-.99-25.21-1.97-37.82-2.96-3.16,1.97-5.96,4.48-8.25,7.39,17.34-.6,34.73.16,51.95,2.27Z"/>
          <path class="cls-2" d="m55.73,53.47c-16.59,1.06-33.3.15-49.67-2.73.99,1.37,2.09,2.66,3.28,3.85,13.56,2.29,27.31,3.49,41.07,3.59,1.95-1.37,3.73-2.95,5.32-4.71Z"/>
          <path class="cls-5" d="m55.73,53.47c1.55-1.71,2.92-3.6,4.07-5.61-18.94.98-37.96.23-56.77-2.24.85,1.81,1.87,3.52,3.03,5.12,16.37,2.88,33.08,3.79,49.67,2.73Z"/>
          <path class="cls-9" d="m63.85,35.1c.1-1.02.15-2.05.15-3.1,0-4.05-.75-7.92-2.13-11.49-19.55-.84-39.1-1.68-58.65-2.52C1.49,21.54.4,25.47.09,29.61c20.94,4.3,42.39,6.15,63.76,5.49Z"/>
          <path class="cls-11" d="m59.8,47.85c2.19-3.83,3.61-8.15,4.05-12.75-21.37.65-42.82-1.19-63.76-5.49-.06.79-.09,1.59-.09,2.39,0,4.87,1.09,9.48,3.03,13.61,18.8,2.47,37.83,3.22,56.77,2.24Z"/>
          <path class="cls-12" d="m13.03,36.75c-1.1.02-2.4.19-2.89,1.17-.4.8-.03,1.82.64,2.42s1.55.88,2.41,1.15c7.32,2.26,14.96,4.51,22.52,3.32,1.18-.19,2.6-.72,2.72-1.91.1-1.01-.82-1.79-1.69-2.32-3.37-2.07-6.74-2.69-10.56-3.15-4.36-.52-8.75-.77-13.15-.67Z"/>
          <path class="cls-3" d="m15.4,41.03c.53.41,1.17.65,1.8.88,3.8,1.37,7.81,2.23,11.85,2.23.81,0,1.79-.13,2.15-.86-2.53.35-5.12.11-7.62-.43-2.5-.54-4.93-1.36-7.35-2.18-.4-.14-.81-.28-1.12-.55-.32-.27-.53-.71-.41-1.12-.14.47-.43.34-.17.95.18.43.5.79.87,1.07Z"/>
          <path class="cls-13" d="m16.39,39.94c.36.33.84.51,1.3.67,4.46,1.58,9.16,2.82,13.88,2.43.53-.04,1.14-.16,1.42-.61.29-.48.06-1.13-.36-1.5-.42-.36-.99-.51-1.53-.64-2.29-.55-4.59-1.07-6.92-1.48-2.24-.39-4.67-.88-6.95-.84-1.15.02-1.78,1.09-.83,1.96Z"/>
        </g>
        <g>
          <path class="cls-14" d="m35.57.2c10.08,6.07,16.94,18.03,16.94,31.8s-6.86,25.74-16.94,31.8c15.99-1.77,28.43-15.34,28.43-31.8S51.56,1.97,35.57.2Z"/>
          <path class="cls-15" d="m52.5,32c0-13.77-6.86-25.74-16.94-31.8-1.17-.13-2.36-.2-3.57-.2C14.33,0,0,14.33,0,32s14.33,32,32,32c1.21,0,2.4-.07,3.57-.2,10.08-6.07,16.94-18.03,16.94-31.8Z"/>
          <ellipse class="cls-8" cx="21.44" cy="20.66" rx="17.45" ry="12.87" transform="translate(-8.32 19.6) rotate(-41.91)"/>
          <ellipse class="cls-7" cx="21.16" cy="17.44" rx="9.95" ry="7.34" transform="translate(-6.23 18.59) rotate(-41.91)"/>
          <ellipse class="cls-6" cx="22.03" cy="15.41" rx="5.49" ry="4.05" transform="translate(-4.66 18.66) rotate(-41.91)"/>
        </g>
      </g>
    </g>
  </g>
</svg>