<?xml version="1.0" encoding="UTF-8"?>
<svg xmlns="http://www.w3.org/2000/svg" viewBox="0 0 64 64">
  <defs>
    <style>
      .cls-1 {
        fill: #d79078;
      }

      .cls-2 {
        opacity: .4;
      }

      .cls-2, .cls-3, .cls-4 {
        fill: #fff;
      }

      .cls-3 {
        opacity: .3;
      }

      .cls-5 {
        isolation: isolate;
      }

      .cls-6 {
        fill: #eeb7a9;
      }

      .cls-4 {
        opacity: .25;
      }

      .cls-7 {
        fill: #d8775d;
      }

      .cls-8 {
        fill: #e2a292;
      }

      .cls-9 {
        mix-blend-mode: multiply;
        opacity: .18;
      }

      .cls-9, .cls-10 {
        fill: #010101;
      }

      .cls-10 {
        opacity: 0;
      }
    </style>
  </defs>
  <g class="cls-5">
    <g id="Ebene_1" data-name="Ebene 1">
      <g>
        <g>
          <path class="cls-6" d="m64,32c0,.11,0,.21,0,.32-.03,2.88-.44,5.67-1.18,8.33-.72,2.58-1.76,5.03-3.07,7.31-1.17,2.03-2.56,3.93-4.14,5.65-2.47,2.7-5.4,4.97-8.66,6.7-3.04,1.61-6.36,2.74-9.88,3.3-.5.08-.99.15-1.5.2-1.17.13-2.36.2-3.57.2-3.36,0-6.6-.52-9.64-1.48-4.16-1.31-7.95-3.45-11.18-6.22-1.78-1.53-3.38-3.24-4.79-5.12-.23-.3-.45-.61-.67-.93-1.35-1.94-2.5-4.05-3.4-6.27-.79-1.96-1.39-4.02-1.78-6.15-.09-.48-.17-.97-.24-1.47-.19-1.43-.3-2.88-.3-4.36,0-.2,0-.41,0-.61.03-1.73.2-3.43.5-5.09.35-1.96.88-3.85,1.57-5.66.95-2.5,2.21-4.85,3.72-7.01,1.81-2.57,3.98-4.87,6.46-6.81C17.69,2.55,24.55,0,32,0c1.21,0,2.4.07,3.57.2,6.07.67,11.63,3.05,16.19,6.63.89.7,1.74,1.44,2.54,2.22,1.76,1.72,3.33,3.63,4.66,5.72.36.56.7,1.13,1.02,1.71,1.64,2.96,2.83,6.2,3.47,9.64.35,1.91.54,3.87.54,5.88Z"/>
          <path class="cls-1" d="m51.11,25.32c-5.28.47-8-3.82-13.05-4.35-11.81-1.24-12.59,9.24-11.5,13.67.56,2.28,4.91,8.38,4.66,10.72-.47,4.34-3.94,5.95-8.02,7.5-5.46,2.07-11.86,1.38-16.82-1.68-.23-.3-.45-.61-.67-.93-1.35-1.94-2.5-4.05-3.4-6.27-.79-1.96-1.39-4.02-1.78-6.15-.09-.48-.17-.97-.24-1.47-.19-1.43-.3-2.88-.3-4.36,0-.2,0-.41,0-.61.03-1.73.2-3.43.5-5.09.35-1.96.88-3.85,1.57-5.66.95-2.5,2.21-4.85,3.72-7.01,1.81-2.57,3.98-4.87,6.46-6.81C17.69,2.55,24.55,0,32,0c1.21,0,2.4.07,3.57.2,6.07.67,11.63,3.05,16.19,6.63.89.7,1.74,1.44,2.54,2.22.42.99.73,2.04.89,3.13.74,4.88.83,12.7-4.09,13.14Z"/>
          <path class="cls-7" d="m13.12,29.83c1.66.16,3.34-.03,5.01.09s3.41.64,4.49,1.91c1.19,1.41,1.31,3.41,2.01,5.13,1.11,2.75,3.79,5.01,3.67,7.98-.08,1.98-1.5,3.72-3.23,4.69-1.73.97-3.75,1.28-5.72,1.47-2.51.24-5.07.29-7.52-.34-2.44-.62-4.77-1.99-6.14-4.11-1.22-1.88-1.59-4.17-1.93-6.39-.59-3.78-1.17-7.57-1.76-11.35-.16-1.01-.31-2.07.07-3.02,1.28-3.22,3.32,0,4.53,1.07,1.81,1.6,4.12,2.63,6.53,2.87Z"/>
          <path class="cls-8" d="m38.55,2.48c2.58.95,4.79,2.66,6.96,4.35,1.62,1.27,3.27,2.56,4.49,4.22,1.25,1.7,1.95,4.23.59,5.85-1.17,1.4-3.37,1.44-5.05.74-1.68-.7-3.04-1.98-4.57-2.98-4.03-2.64-9.35-3.21-13.85-1.48-2.42.93-4.59,2.47-7.09,3.14-2.5.67-5.63.16-6.88-2.1-2.72-4.93,4.13-8.44,7.76-9.72,5.58-1.98,11.78-4.16,17.64-2.02Z"/>
        </g>
        <g>
          <path class="cls-9" d="m35.57.2c10.08,6.07,16.94,18.03,16.94,31.8s-6.86,25.74-16.94,31.8c15.99-1.77,28.43-15.34,28.43-31.8S51.56,1.97,35.57.2Z"/>
          <path class="cls-10" d="m52.5,32c0-13.77-6.86-25.74-16.94-31.8-1.17-.13-2.36-.2-3.57-.2C14.33,0,0,14.33,0,32s14.33,32,32,32c1.21,0,2.4-.07,3.57-.2,10.08-6.07,16.94-18.03,16.94-31.8Z"/>
          <ellipse class="cls-4" cx="21.44" cy="20.66" rx="17.45" ry="12.87" transform="translate(-8.32 19.6) rotate(-41.91)"/>
          <ellipse class="cls-3" cx="21.16" cy="17.44" rx="9.95" ry="7.34" transform="translate(-6.23 18.59) rotate(-41.91)"/>
          <ellipse class="cls-2" cx="22.03" cy="15.41" rx="5.49" ry="4.05" transform="translate(-4.66 18.66) rotate(-41.91)"/>
        </g>
      </g>
    </g>
  </g>
</svg>