<?xml version="1.0" encoding="UTF-8"?>
<svg id="Ebene_1" data-name="Ebene 1" xmlns="http://www.w3.org/2000/svg" viewBox="0 0 64 64">
  <defs>
    <style>
      .cls-1 {
        fill: #f9af1b;
      }

      .cls-2 {
        fill: #756a78;
      }

      .cls-3 {
        fill: #bfa63d;
      }

      .cls-4 {
        fill: #ddc666;
      }

      .cls-5 {
        fill: #ffe979;
      }

      .cls-6 {
        fill: #ffd133;
      }
    </style>
  </defs>
  <polygon class="cls-6" points="32 6.08 37.07 0 40.01 7.35 46.71 3.13 47.23 11.03 54.91 9.09 52.97 16.77 60.87 17.29 56.65 23.99 64 26.93 57.92 32 64 37.07 56.65 40.01 60.87 46.71 52.97 47.23 54.91 54.91 47.23 52.97 46.71 60.87 40.01 56.65 37.07 64 32 57.92 26.93 64 23.99 56.65 17.29 60.87 16.77 52.97 9.09 54.91 11.03 47.23 3.13 46.71 7.35 40.01 0 37.07 6.08 32 0 26.93 7.35 23.99 3.13 17.29 11.03 16.77 9.09 9.09 16.77 11.03 17.29 3.13 23.99 7.35 26.93 0 32 6.08"/>
  <polygon class="cls-1" points="25.63 11.8 28.09 5.82 32.18 10.82 36.37 5.89 38.72 11.92 44.22 8.52 44.6 14.98 50.88 13.44 49.24 19.7 55.69 20.19 52.2 25.63 58.18 28.09 53.18 32.18 58.11 36.37 52.08 38.72 55.48 44.22 49.02 44.6 50.56 50.88 44.3 49.24 43.81 55.69 38.37 52.2 35.91 58.18 31.82 53.18 27.63 58.11 25.28 52.08 19.78 55.48 19.4 49.02 13.12 50.56 14.76 44.3 8.31 43.81 11.8 38.37 5.82 35.91 10.82 31.82 5.89 27.63 11.92 25.28 8.52 19.78 14.98 19.4 13.44 13.12 19.7 14.76 20.19 8.31 25.63 11.8"/>
  <g>
    <path class="cls-3" d="m44.99,13.32c.05.08.09.17.13.25,4.53,4.07,7.38,9.97,7.38,16.54,0,12.28-9.96,22.24-22.24,22.24-6.94,0-13.14-3.18-17.21-8.16,4.01,6.44,11.15,10.74,19.3,10.74,12.55,0,22.72-10.17,22.72-22.72,0-7.87-4-14.81-10.08-18.88Z"/>
    <path class="cls-4" d="m30.27,52.36c12.28,0,22.24-9.96,22.24-22.24,0-6.57-2.85-12.47-7.38-16.54,1.62,3.08,2.54,6.59,2.54,10.32,0,12.28-9.96,22.24-22.24,22.24-5.28,0-10.12-1.84-13.93-4.91.45,1.03.97,2.02,1.56,2.97,4.08,4.98,10.27,8.16,17.21,8.16Z"/>
    <path class="cls-2" d="m45.12,13.58c-.04-.08-.08-.17-.13-.25-.21-.14-.43-.28-.65-.42.27.22.53.44.78.67Z"/>
    <path class="cls-5" d="m32.35,9.49c-12.55,0-22.72,10.17-22.72,22.72,0,3.2.67,6.25,1.86,9.01,3.81,3.07,8.66,4.91,13.93,4.91,12.28,0,22.24-9.96,22.24-22.24,0-3.73-.92-7.23-2.54-10.32-.26-.23-.52-.45-.78-.67-3.48-2.17-7.59-3.42-11.99-3.42Z"/>
  </g>
</svg>