<?xml version="1.0" encoding="UTF-8"?>
<svg xmlns="http://www.w3.org/2000/svg" viewBox="0 0 64 38.97">
  <defs>
    <style>
      .cls-1 {
        isolation: isolate;
      }

      .cls-2 {
        opacity: .26;
      }

      .cls-2, .cls-3, .cls-4 {
        fill: #fff;
      }

      .cls-5 {
        fill: #7ac9d4;
      }

      .cls-6 {
        fill: #59c1d3;
      }

      .cls-3 {
        opacity: .2;
      }

      .cls-7 {
        fill: none;
      }

      .cls-4 {
        opacity: .15;
      }

      .cls-8 {
        mix-blend-mode: multiply;
        opacity: .18;
      }

      .cls-8, .cls-9 {
        fill: #010101;
      }

      .cls-9 {
        opacity: 0;
      }

      .cls-10 {
        fill: #b2dde4;
      }
    </style>
  </defs>
  <g class="cls-1">
    <g id="Ebene_1" data-name="Ebene 1">
      <g>
        <path class="cls-5" d="m34.32,15.53c-.03.43-.54.64-.96.72-1.2.24-2.46.28-3.69.13.15-.96.38-1.9.67-2.81,1.02.36,2.04.72,3.07,1.08.43.15.95.43.91.88Z"/>
        <path class="cls-7" d="m18.15,19.48c0-.21,0-.41.01-.62.03-.84.1-1.67.24-2.48.04-.27.09-.55.15-.82-7.32,1.35-12.03,3.45-12.03,5.81,0,2.5,5.27,4.7,13.31,6.03-.34-.77-.64-1.56-.88-2.38-.52-1.76-.8-3.62-.8-5.55Z"/>
        <g>
          <g>
            <path class="cls-6" d="m51.48,19.48c0,3.5-.92,6.78-2.54,9.62-.37.64-.77,1.27-1.2,1.86-1.98,2.71-4.65,4.9-7.75,6.29-1.81.82-3.77,1.36-5.82,1.59-.5.06-1,.09-1.51.11-.22,0-.44.01-.66.01-5.19,0-9.91-2.03-13.4-5.34-1.26-1.19-2.36-2.55-3.26-4.03-.07-.11-.13-.22-.2-.33-.1-.17-.2-.35-.3-.53-.63-1.17-1.15-2.41-1.53-3.7-.52-1.76-.8-3.62-.8-5.55,0-.21,0-.41.01-.62.03-.84.1-1.67.24-2.48.15-.96.38-1.9.67-2.81.08-.26.17-.52.27-.78.26-.73.57-1.43.92-2.11.97-1.91,2.25-3.65,3.77-5.13.78-.76,1.62-1.45,2.51-2.08,3.15-2.19,6.98-3.47,11.1-3.47.73,0,1.46.04,2.17.12,3.35.37,6.44,1.59,9.06,3.44.59.42,1.16.87,1.7,1.35.63.56,1.22,1.16,1.78,1.8.45.51.87,1.05,1.26,1.61.76,1.09,1.42,2.26,1.95,3.5.22.51.42,1.04.59,1.57.27.82.49,1.66.65,2.52.1.54.18,1.09.23,1.64.06.63.09,1.28.09,1.93Z"/>
            <path class="cls-5" d="m48.94,29.11c-.37.64-.77,1.27-1.2,1.86-2.92.49-5.9.6-8.85.32.58.11,1.08.56,1.26,1.12-3.35.08-6.71.17-10.06.25,1.23.24,2.46.48,3.69.71-4.96,1.18-10.18,1.26-15.19.26-1.26-1.19-2.36-2.55-3.26-4.03.2-.04.41-.08.61-.11-.27-.07-.54-.14-.81-.22-.1-.17-.2-.35-.3-.53,2.46-.36,5.01.31,7.47.86,2.78.62,5.84,1.03,8.35-.31-1.05-.29-2.09-.57-3.14-.86,2.76-.45,5.52-.9,8.28-1.35-2.3-.53-4.6-1.07-6.9-1.6,6.08-.93,12.32-.82,18.37.3-.78.38-1.55.76-2.33,1.14.95.1,1.9.2,2.85.3-1.04.08-2.06.4-2.96.92,1.37.32,2.73.64,4.1.96Z"/>
            <path class="cls-5" d="m48.75,19.51c-2.82.91-5.74,1.53-8.69,1.83,1.1-.03,2.21.3,3.11.93-6.3,1.42-13.04-.87-19.26.82.52.27,1.04.54,1.56.81-1.52.25-3.04.5-4.55.75l1.9,1.09c-3.16-.23-6.33-.47-9.49-.7-.52-1.76-.8-3.62-.8-5.55,0-.21,0-.41.01-.62,2.12.19,4.23.54,6.3,1.05.91.22,1.86.48,2.76.23.5-.14.95-.42,1.39-.7,1.46-.93,2.92-1.86,4.38-2.79-2.47-.41-4.85-1.36-6.92-2.77,6.2-.49,12.45-.42,18.63.19-2.03.29-4.05.68-6.05,1.16.9.5,1.8,1,2.71,1.5-1.91.28-3.83.55-5.74.83,3.58.91,7.33,1.17,11,.78.34-.04.7-.09.95-.31.26-.22.34-.68.07-.89-.28-.22-.8-.12-.9-.46-.09-.33.38-.51.72-.52,3.1-.17,6.22-.34,9.32-.23.1.54.18,1.09.23,1.64-1.6.42-3.22.75-4.85.99.83-.08,1.7.3,2.21.96Z"/>
            <path class="cls-5" d="m50.51,13.39c-2.45.36-4.94.47-7.41.32.32-.36.65-.71.97-1.07-1.5-.05-2.99-.09-4.49-.14-.17,0-.37-.02-.48-.15-.28-.33.3-.73.73-.72.43.01,1.04-.01,1.09-.45-6.26-.8-12.61-.8-18.87-.01.9.36,1.8.72,2.71,1.08-3.69.18-7.38.35-11.07.53.26-.73.57-1.43.92-2.11,1.7.05,3.41.1,5.11.15-.36-.11-.61-.57-.51-.95.14-.48.65-.77,1.14-.83.5-.06.99.06,1.49.14,1.35.21,2.75.08,4.03-.38-.79-.36-1.58-.73-2.37-1.09,4.58-.08,9.16.03,13.73.32-.98.52-1.96,1.05-2.94,1.57,4.3-.1,8.62.15,12.88.74-.65.37-1.29.74-1.94,1.1,1.55.12,3.11.25,4.66.37.22.51.42,1.04.59,1.57Z"/>
            <path class="cls-5" d="m42.14,8.24c.05.01.11.02.16.03-.05,0-.11,0-.16-.03Z"/>
            <path class="cls-5" d="m47.97,8.32c-1.87.3-3.8.29-5.67-.05.23-.04.41-.42.26-.65-.18-.29-.57-.36-.91-.4-2.72-.34-5.44-.69-8.16-1.03.75-.45,1.5-.9,2.26-1.34-2.97-.54-6.01-.68-9.01-.41.23.25.61.27.95.24.34-.04.7-.1,1.01.04.31.14.48.61.21.83-.12.1-.29.11-.45.11-1.52.04-3.05.05-4.57.03-1.77-.03-3.67.01-5.5-.12.78-.76,1.62-1.45,2.51-2.08,1.36.24,2.72.47,4.09.71-.17-.4.11-.88.49-1.09.39-.2.85-.2,1.28-.2,5.5.06,11.01.12,16.47.67.59.42,1.16.87,1.7,1.35-.28.11-.57.18-.86.23-.8.13-1.72.25-2.18.91,1.61.22,3.21.44,4.82.66.45.51.87,1.05,1.26,1.61Z"/>
            <path class="cls-5" d="m35.26,35.69c-.05-.01-.11-.02-.16-.03.05,0,.11,0,.16.03Z"/>
            <path class="cls-5" d="m39.99,37.26c-1.81.82-3.77,1.36-5.82,1.59-.5.06-1,.09-1.51.11.22-.07.44-.12.66-.16.8-.13,1.71-.25,2.18-.91-2.67-.37-5.35-.73-8.02-1.1-.21-.03-.46-.1-.49-.31-.03-.22.23-.36.44-.42,2.48-.72,5.12-.86,7.66-.4-.23.04-.41.42-.26.65.18.29.57.36.91.4,1.41.18,2.83.36,4.25.54Z"/>
          </g>
          <g>
            <path class="cls-8" d="m34.17.12c6.14,3.69,10.31,10.98,10.31,19.36s-4.17,15.67-10.31,19.36c9.74-1.08,17.31-9.34,17.31-19.36S43.91,1.2,34.17.12Z"/>
            <path class="cls-9" d="m44.48,19.48c0-8.38-4.17-15.67-10.31-19.36-.71-.08-1.44-.12-2.17-.12C21.24,0,12.52,8.72,12.52,19.48s8.72,19.48,19.48,19.48c.73,0,1.46-.04,2.17-.12,6.14-3.69,10.31-10.98,10.31-19.36Z"/>
            <ellipse class="cls-4" cx="25.57" cy="12.58" rx="10.62" ry="7.83" transform="translate(-1.86 20.3) rotate(-41.91)"/>
            <ellipse class="cls-3" cx="25.4" cy="10.62" rx="6.06" ry="4.47" transform="translate(-.59 19.68) rotate(-41.91)"/>
            <ellipse class="cls-2" cx="25.93" cy="9.38" rx="3.35" ry="2.47" transform="translate(.37 19.72) rotate(-41.91)"/>
          </g>
        </g>
        <g>
          <path class="cls-7" d="m51.39,17.55c.06.63.09,1.28.09,1.93,0,2.82-.6,5.5-1.68,7.93,8.05-1.33,13.31-3.54,13.31-6.03,0-2.36-4.71-4.46-12.03-5.81.02.12.05.23.07.35.1.54.18,1.09.23,1.64Z"/>
          <path class="cls-10" d="m64,21.37c0-2.49-5.1-4.7-12.97-6.08.02.09.04.18.06.27,7.32,1.35,12.03,3.45,12.03,5.81,0,2.5-5.27,4.7-13.31,6.03-.04.09-.08.18-.12.27,8.63-1.36,14.32-3.67,14.32-6.31Z"/>
          <path class="cls-10" d="m.88,21.37c0-2.36,4.71-4.46,12.03-5.81.02-.09.04-.18.06-.27-7.87,1.38-12.97,3.59-12.97,6.08,0,2.63,5.69,4.95,14.32,6.31-.04-.09-.08-.18-.13-.27-8.05-1.33-13.31-3.54-13.31-6.03Z"/>
          <path class="cls-10" d="m32,28.73c-6.62,0-12.76-.49-17.8-1.32.04.09.08.18.13.27,5.07.8,11.14,1.26,17.68,1.26s12.61-.46,17.68-1.26c.04-.09.08-.18.12-.27-5.04.83-11.18,1.32-17.8,1.32Z"/>
        </g>
      </g>
    </g>
  </g>
</svg>