<?xml version="1.0" encoding="UTF-8"?>
<svg xmlns="http://www.w3.org/2000/svg" viewBox="0 0 64 64">
  <defs>
    <style>
      .cls-1 {
        isolation: isolate;
      }

      .cls-2 {
        opacity: .26;
      }

      .cls-2, .cls-3, .cls-4 {
        fill: #fff;
      }

      .cls-5 {
        fill: #d7d1ce;
      }

      .cls-6 {
        fill: #fef2e8;
      }

      .cls-7 {
        fill: #badaf2;
      }

      .cls-8 {
        fill: #8dbfe1;
      }

      .cls-9 {
        fill: #77a6c6;
      }

      .cls-3 {
        opacity: .2;
      }

      .cls-4 {
        opacity: .15;
      }

      .cls-10 {
        fill: #8cb5d2;
      }

      .cls-11 {
        fill: #88b8d1;
      }

      .cls-12 {
        fill: #abbfcc;
      }

      .cls-13 {
        mix-blend-mode: multiply;
        opacity: .18;
      }

      .cls-13, .cls-14 {
        fill: #010101;
      }

      .cls-14 {
        opacity: 0;
      }

      .cls-15 {
        fill: #8bc3eb;
      }
    </style>
  </defs>
  <g class="cls-1">
    <g id="Ebene_1" data-name="Ebene 1">
      <g>
        <g>
          <path class="cls-8" d="m63.21,24.93s-.02-.1-.03-.15c-.04-.17-.08-.34-.12-.5-.01-.05-.02-.1-.04-.15-.04-.17-.09-.34-.13-.5-.01-.05-.02-.09-.04-.13-.05-.17-.1-.35-.15-.52,0-.02,0-.03-.02-.05-.18-.6-.37-1.2-.59-1.79,0,0,0,0,0,0-.06-.16-.12-.32-.18-.48-.02-.05-.04-.11-.06-.16-.06-.15-.11-.29-.17-.44-.03-.07-.05-.13-.08-.19-.06-.14-.11-.28-.17-.42-.03-.07-.06-.14-.09-.21-.06-.14-.12-.27-.18-.41-.03-.07-.06-.14-.09-.2-.06-.14-.13-.27-.19-.41-.03-.06-.06-.12-.09-.18-.07-.14-.14-.29-.21-.43,0-.01-.01-.03-.02-.04-.16-.31-.32-.62-.49-.92-20.12,1.22-40.12,4.49-59.58,9.73,0,.06-.02.11-.03.17-.03.15-.05.31-.08.46-.02.11-.03.23-.05.34-.02.12-.03.24-.05.37-.02.13-.03.25-.05.38-.01.1-.02.2-.04.3-.06.53-.11,1.07-.14,1.61,0,.04,0,.08,0,.12-.01.18-.02.37-.03.56,0,.04,0,.08,0,.13,0,.19-.01.39-.02.58,0,.2,0,.41,0,.61,0,.24,0,.48,0,.72,0,.05,0,.1,0,.15,21.1-2.48,42.21-4.97,63.31-7.45-.03-.17-.07-.33-.11-.5Z"/>
          <path class="cls-7" d="m59.5,15.63s-.01-.02-.02-.03c-.17-.28-.34-.55-.51-.82h0c-.12-.19-.24-.37-.36-.55,0,0,0-.01-.01-.02-.12-.18-.24-.36-.37-.53,0,0-.01-.02-.02-.03-.12-.17-.25-.35-.37-.52,0,0-.02-.02-.02-.03-.13-.17-.25-.34-.38-.51,0,0-.01-.02-.02-.02-.13-.17-.27-.34-.4-.51,0,0,0,0,0,0-.69-.87-1.43-1.69-2.21-2.48-9.26-.4-18.67,1.04-27.69,3.34-8.51,2.17-16.79,5.09-25.09,7.95-.06.16-.12.31-.17.47,0,0,0,0,0,.01-.08.22-.16.45-.23.67,0,.01,0,.02-.01.03-.07.22-.14.44-.21.66,0,.02-.01.04-.02.06-.07.21-.13.43-.19.64l-.02.09c-.06.21-.11.42-.17.63-.01.04-.02.08-.03.11-.05.21-.1.41-.15.62,0,.03-.01.06-.02.08-.11.48-.2.96-.29,1.45,19.46-5.24,39.46-8.51,59.58-9.73-.19-.34-.38-.68-.58-1.01Z"/>
          <path class="cls-5" d="m63.88,34.74c.07-.8.11-1.6.12-2.42h0c0-.11,0-.22,0-.32,0-.25,0-.51,0-.76,0-.14,0-.28-.02-.42,0-.11,0-.22-.01-.33,0-.19-.02-.38-.03-.57,0-.06,0-.12-.01-.17-.02-.22-.03-.44-.05-.66,0-.02,0-.05,0-.08-.02-.24-.05-.48-.07-.72,0,0,0,0,0-.01-.11-.92-.25-1.83-.44-2.73,0-.04-.02-.07-.02-.11,0,0,0-.02,0-.03C42.22,27.91,21.12,30.39.01,32.87c0,.02,0,.05,0,.07,0,.18.01.37.02.55,0,.12.01.24.02.36,0,.14.02.29.03.43,0,.13.02.27.03.4,0,.07.01.14.02.21.07.81.18,1.61.31,2.4,9.39-1.58,19.08-1.76,28.64-1.93,11.6-.2,23.2-.41,34.8-.61Z"/>
          <path class="cls-15" d="m47.21,3.84s-.07-.04-.1-.05c-.27-.14-.54-.28-.81-.42-.02-.01-.05-.03-.08-.04-.12-.06-.24-.12-.36-.18-.07-.03-.14-.07-.21-.1-.12-.05-.23-.11-.35-.16-.08-.04-.15-.07-.23-.11-.19-.08-.37-.16-.56-.24-.1-.04-.2-.08-.3-.12-.1-.04-.21-.09-.31-.13-.1-.04-.19-.08-.29-.11-.1-.04-.21-.08-.31-.12-.11-.04-.21-.08-.32-.12-.09-.03-.19-.07-.28-.1-.19-.07-.37-.13-.56-.19-.08-.03-.16-.05-.25-.08-.13-.04-.25-.08-.38-.12-.09-.03-.18-.05-.27-.08-.13-.04-.26-.08-.4-.11-.08-.02-.16-.05-.24-.07-.2-.06-.41-.11-.61-.16-.06-.02-.12-.03-.18-.05-.16-.04-.32-.08-.47-.11-.08-.02-.16-.04-.23-.05-.15-.03-.3-.07-.45-.1-.07-.02-.14-.03-.21-.05-.22-.04-.43-.09-.65-.13-.03,0-.06-.01-.09-.02-.19-.03-.38-.07-.57-.1-.07-.01-.14-.02-.21-.03-.16-.02-.32-.05-.48-.07-.07,0-.14-.02-.2-.03-.23-.03-.45-.06-.68-.08-1.17-.13-2.36-.2-3.57-.2-.26,0-.51,0-.77,0-.08,0-.16,0-.25,0-.17,0-.35.01-.52.02-.09,0-.19,0-.28.02-.16,0-.32.02-.48.03-.1,0-.19.01-.29.02-.16.01-.33.03-.49.05-.09,0-.18.02-.27.02-.2.02-.39.04-.59.07-.05,0-.11.01-.16.02-.25.03-.49.07-.74.1-.07.01-.14.02-.21.03-.18.03-.35.06-.53.09-.09.02-.18.03-.27.05-.16.03-.31.06-.47.09-.09.02-.19.04-.28.06-.15.03-.3.07-.46.1-.09.02-.18.04-.27.06-.17.04-.33.08-.5.12-.07.02-.15.04-.22.05-.23.06-.47.12-.7.19-.05.01-.09.03-.14.04-.19.05-.38.11-.56.17-.08.03-.17.05-.25.08-.15.05-.3.1-.45.15-.09.03-.18.06-.27.09-.14.05-.28.1-.42.15-.09.03-.18.07-.27.1-.15.05-.29.11-.44.17-.08.03-.16.06-.25.09-.19.07-.37.15-.56.23-.04.02-.07.03-.11.05-.22.09-.44.19-.65.29-.08.03-.15.07-.23.11-.14.07-.28.13-.43.2-.09.04-.18.08-.26.13-.13.06-.26.13-.39.19-.09.05-.18.09-.27.14-.13.07-.26.14-.39.21-.08.04-.17.09-.25.13-.14.08-.29.16-.43.24-.07.04-.13.07-.2.11-.2.12-.4.24-.6.36-.06.04-.13.08-.19.12-.14.09-.28.17-.41.26-.08.05-.16.1-.24.16-.12.08-.24.16-.36.24-.08.06-.17.11-.25.17-.12.08-.23.16-.35.24-.08.06-.16.11-.24.17-.12.09-.24.18-.37.27-.07.05-.14.1-.21.16-.19.14-.37.28-.55.42-.28.22-.55.44-.82.67-.06.05-.11.1-.17.14-.55.46-1.07.95-1.59,1.44-.04.04-.08.08-.13.12-.06.06-.12.11-.17.17-.47.46-.92.94-1.35,1.43-.02.03-.05.05-.07.08-.5.57-.99,1.16-1.45,1.77,0,0-.02.02-.02.03-.43.56-.83,1.14-1.22,1.73-.01.02-.03.04-.04.07-.49.75-.95,1.52-1.38,2.31,3.6-1.58,7.16-3.36,10.75-4.88,10.37-4.38,21.41-6.62,32.62-8.07Z"/>
          <path class="cls-6" d="m54.79,9.54c-1.07-1.09-2.22-2.1-3.43-3.03-.02-.01-.04-.03-.06-.04-.37-.28-.74-.55-1.12-.81-.19-.13-.39-.26-.58-.39-.03-.02-.06-.04-.09-.06-.14-.09-.27-.18-.41-.27,0,0,0,0,0,0-.3-.19-.61-.38-.92-.56,0,0,0,0,0,0-.13-.08-.27-.15-.4-.23-.05-.03-.09-.05-.14-.08-.13-.07-.26-.14-.39-.21,0,0-.02,0-.02-.01-11.2,1.44-22.25,3.69-32.62,8.07-3.59,1.52-7.15,3.3-10.75,4.88-.04.07-.08.14-.11.21,0,0,0,.01-.01.02-.62,1.17-1.17,2.38-1.64,3.62-.03.07-.05.14-.08.21,8.3-2.86,16.59-5.78,25.09-7.95,9.02-2.31,18.43-3.75,27.69-3.34Z"/>
          <path class="cls-9" d="m55.61,53.6c.15-.16.3-.33.45-.5-7.25-1.03-14.44-3.13-21.57-4.9-10.14-2.52-21.05-4.36-31.01-1.7.53,1.04,1.11,2.04,1.75,3.01h0c.16.25.33.49.5.74h0c.08.12.17.24.25.35,11.21-1.51,22.8,1.64,33.82,4.78,3.43.98,6.87,1.96,10.27,3.04,2.03-1.39,3.89-3.01,5.55-4.82Z"/>
          <path class="cls-10" d="m5.97,50.6c.51.71,1.04,1.4,1.61,2.06,0,0,.01.02.02.02.65.76,1.33,1.5,2.05,2.19.02.02.04.04.06.06.54.53,1.1,1.03,1.68,1.52,1.45-.52,3.03-.73,4.56-.68,3.01.1,5.92,1.08,8.77,2.05,5.06,1.72,10.13,3.45,15.19,5.17.08-.02.16-.04.25-.06.1-.03.21-.06.31-.08.12-.03.25-.07.37-.1.09-.03.19-.05.28-.08.13-.04.26-.08.39-.12.08-.02.15-.05.23-.07.15-.05.29-.09.44-.14.03-.01.06-.02.09-.03.78-.27,1.55-.56,2.3-.88.02,0,.04-.02.06-.03.18-.07.35-.15.53-.23.03-.01.05-.02.08-.04.17-.08.34-.16.51-.24.03-.01.05-.03.08-.04.17-.08.35-.17.52-.25l.06-.03c.18-.09.36-.18.54-.28h0c1.08-.57,2.11-1.2,3.11-1.88-3.4-1.08-6.84-2.06-10.27-3.04-11.02-3.14-22.61-6.29-33.82-4.78Z"/>
          <path class="cls-15" d="m15.94,55.79c-1.54-.05-3.12.16-4.56.68.13.11.27.23.4.34.01,0,.02.02.03.03.19.16.39.31.58.46.02.02.04.03.06.05.19.14.38.29.57.43.03.02.05.04.08.06.19.14.37.27.56.4.03.02.07.05.1.07.18.13.37.25.56.38.04.02.07.05.11.07.18.12.37.24.56.36.04.02.08.05.12.07.18.11.37.23.56.34.04.02.08.05.13.07.19.11.37.22.56.32.04.02.09.05.13.07.19.11.38.21.57.31.04.02.09.05.13.07.19.1.39.2.58.3.04.02.09.04.13.07.2.1.4.19.59.28.04.02.09.04.13.06.2.09.41.18.61.27.04.02.08.03.12.05.21.09.42.18.64.27.03.01.07.03.1.04.22.09.44.17.66.26.03.01.06.02.08.03.23.09.47.17.7.25.02,0,.03.01.05.02.25.09.51.17.76.25t0,0c.14.05.29.09.43.13.07.02.15.05.22.07.14.04.28.08.42.12.08.02.16.04.23.06.46.12.93.24,1.39.34.1.02.2.04.3.07.13.03.25.05.38.08.11.02.23.04.34.07.12.02.23.04.35.06.21.04.42.07.64.11.09.02.19.03.28.04.14.02.29.04.44.06.1.01.2.03.3.04.15.02.3.04.45.05.09,0,.18.02.27.03.23.02.47.05.7.06.05,0,.09,0,.14,0,.2.01.4.03.6.04.08,0,.16,0,.24.01.18,0,.35.01.53.02.08,0,.15,0,.23,0,.25,0,.5,0,.74,0,1.21,0,2.4-.07,3.57-.2.25-.03.5-.06.75-.09,0,0,.01,0,.02,0,.24-.03.48-.07.73-.11.23-.04.46-.08.69-.12.09-.02.18-.03.26-.05.14-.03.28-.05.43-.08.1-.02.21-.04.31-.07.12-.03.25-.05.37-.08.11-.02.22-.05.33-.08.11-.03.23-.06.34-.08.04,0,.07-.02.1-.03-5.06-1.72-10.13-3.45-15.19-5.17-2.85-.97-5.76-1.95-8.77-2.05Z"/>
          <path class="cls-12" d="m34.48,48.21c7.13,1.77,14.33,3.86,21.57,4.9.62-.71,1.21-1.44,1.77-2.2,0,0,0,0,0-.01.69-.94,1.33-1.92,1.91-2.93,1.1-1.9,2-3.93,2.69-6.05-6.99.28-14.08,1.1-21.02.73-7.93-.42-15.69-2.41-23.6-3.13-5.53-.51-11.32-.32-16.57,1.34.39,1.35.86,2.67,1.42,3.94,0,.01,0,.02.01.03.25.57.52,1.13.8,1.68,9.95-2.66,20.86-.82,31.01,1.7Z"/>
          <path class="cls-11" d="m17.81,39.51c7.91.72,15.67,2.71,23.6,3.13,6.94.37,14.04-.44,21.02-.73.15-.45.29-.9.41-1.36.52-1.87.86-3.81,1.03-5.8-11.6.2-23.2.41-34.8.61-9.56.17-19.24.36-28.64,1.93.2,1.21.47,2.4.81,3.56,5.24-1.66,11.03-1.85,16.57-1.34Z"/>
        </g>
        <g>
          <path class="cls-13" d="m35.57.2c10.08,6.07,16.94,18.03,16.94,31.8s-6.86,25.74-16.94,31.8c15.99-1.77,28.43-15.34,28.43-31.8S51.56,1.97,35.57.2Z"/>
          <path class="cls-14" d="m52.5,32c0-13.77-6.86-25.74-16.94-31.8-1.17-.13-2.36-.2-3.57-.2C14.33,0,0,14.33,0,32s14.33,32,32,32c1.21,0,2.4-.07,3.57-.2,10.08-6.07,16.94-18.03,16.94-31.8Z"/>
          <ellipse class="cls-4" cx="21.44" cy="20.66" rx="17.45" ry="12.87" transform="translate(-8.32 19.6) rotate(-41.91)"/>
          <ellipse class="cls-3" cx="21.16" cy="17.44" rx="9.95" ry="7.34" transform="translate(-6.23 18.59) rotate(-41.91)"/>
          <ellipse class="cls-2" cx="22.03" cy="15.41" rx="5.49" ry="4.05" transform="translate(-4.66 18.66) rotate(-41.91)"/>
        </g>
      </g>
    </g>
  </g>
</svg>